<svg width="203" height="203" viewBox="0 0 203 203" fill="none" xmlns="http://www.w3.org/2000/svg">
<g clip-path="url(#clip0)">
<path d="M101.5 203C157.557 203 203 157.557 203 101.5C203 45.4431 157.557 0 101.5 0C45.4431 0 0 45.4431 0 101.5C0 157.557 45.4431 203 101.5 203Z" fill="#5BA784"/>
<path d="M75.5648 147.287L127.756 199.478C170.981 187.951 203 148.568 203 101.5C203 100.539 203 99.5788 203 98.6183L162.016 60.8359L75.5648 147.287Z" fill="#45947A"/>
<path d="M104.061 124.233C108.544 128.716 108.544 136.401 104.061 140.883L94.7758 150.169C90.2932 154.651 82.6086 154.651 78.126 150.169L37.462 109.185C32.9793 104.702 32.9793 97.0174 37.462 92.5347L46.7475 83.2493C51.2301 78.7666 58.9146 78.7666 63.3973 83.2493L104.061 124.233Z" fill="white"/>
<path d="M139.602 53.4716C144.085 48.989 151.77 48.989 156.252 53.4716L165.538 62.7571C170.02 67.2398 170.02 74.9243 165.538 79.407L95.096 149.528C90.6134 154.011 82.9288 154.011 78.4462 149.528L69.1607 140.243C64.678 135.76 64.678 128.076 69.1607 123.593L139.602 53.4716Z" fill="white"/>
</g>
<defs>
<clipPath id="clip0">
<rect width="203" height="203" fill="white"/>
</clipPath>
</defs>
</svg>
