<svg width="32" height="32" viewBox="0 0 32 32" fill="none" xmlns="http://www.w3.org/2000/svg">
<path d="M27.2578 5.32495C26.2559 5.19971 25.2768 4.97998 24.3481 4.67212C24.0997 4.58984 23.831 4.72217 23.7478 4.96753C23.6646 5.21313 23.7984 5.47876 24.0466 5.56104C25.0346 5.88867 26.0749 6.12207 27.139 6.25513C28.7347 6.45483 29.8736 7.91089 29.6775 9.50073C29.4205 11.5857 28.9498 14.6978 28.1675 17.6831C27.3153 20.9348 26.3152 23.1973 25.1948 24.4077C22.8941 26.8933 20.0096 29.0964 17.9951 30.5068C16.9365 31.248 15.5141 31.248 14.4557 30.5068C12.4412 29.0964 9.55669 26.8933 7.25596 24.4077C6.13559 23.1973 5.13524 20.9348 4.2833 17.6831C3.501 14.6978 3.03033 11.5857 2.77302 9.50073C2.5772 7.91089 3.71584 6.45483 5.3118 6.25513C9.91203 5.67993 12.961 3.39478 14.7088 1.5791C15.1071 1.16553 15.6457 0.9375 16.2253 0.9375C16.8048 0.9375 17.3434 1.16553 17.742 1.5791C19.0011 2.88721 20.4566 3.95386 22.0679 4.74951C22.3019 4.86523 22.5869 4.77124 22.704 4.53955C22.8208 4.30786 22.7257 4.02637 22.4916 3.91089C20.9788 3.16382 19.612 2.16187 18.4287 0.932861C17.8496 0.331299 17.0671 0 16.2253 0C15.3835 0 14.6009 0.331299 14.0218 0.932861C12.3802 2.63818 9.51594 4.78442 5.19278 5.32495C3.08046 5.58911 1.57265 7.51343 1.83169 9.61426C2.27322 13.1948 3.61756 21.8657 6.55638 25.0408C8.91366 27.5874 11.8552 29.835 13.9075 31.272C14.6007 31.7573 15.4128 32 16.2253 32C17.0375 31.9998 17.8499 31.7573 18.543 31.272C20.5954 29.835 23.5369 27.5874 25.8942 25.0408C28.8332 21.8657 30.1773 13.1948 30.6189 9.61426C30.8779 7.51343 29.3701 5.58911 27.2578 5.32495Z" fill="#929495"/>
<path d="M15.0139 4.34082C12.6426 6.39283 9.87426 7.73585 6.78612 8.33253C5.8452 8.51441 5.20994 9.40406 5.33983 10.3582C5.55833 11.9624 6.00511 14.9627 6.541 17.031C7.51781 20.802 8.46239 22.2378 8.93847 22.7578C10.5034 24.4678 13.4072 26.7527 14.9988 27.9624C15.3147 28.2024 15.6931 28.3223 16.0715 28.3223C16.45 28.3223 16.8284 28.2024 17.1443 27.9624C18.7359 26.7527 21.6397 24.4678 23.2046 22.7578C23.6807 22.2378 24.6253 20.802 25.6021 17.031C26.1382 14.9622 26.5847 11.9622 26.8035 10.3582C26.9334 9.40406 26.2979 8.51441 25.357 8.33253C22.2688 7.73585 19.5005 6.39283 17.1292 4.34082C16.5261 3.81909 15.6169 3.81909 15.0139 4.34082ZM25.8745 10.2315C25.6587 11.8152 25.2185 14.7737 24.6946 16.7959C23.7071 20.6079 22.7752 21.8384 22.5132 22.125C20.9412 23.8426 17.8381 26.2574 16.5769 27.2159C16.2793 27.4422 15.8638 27.4422 15.5662 27.2159C14.3049 26.2574 11.2019 23.8423 9.63012 22.125C9.36791 21.8384 8.43602 20.6079 7.44847 16.7959C6.92479 14.7742 6.4846 11.8154 6.26878 10.2315C6.20579 9.77027 6.51122 9.34059 6.96385 9.25294C10.2156 8.62476 13.1304 7.2107 15.6274 5.04981C15.7539 4.94019 15.9128 4.88526 16.0715 4.88526C16.2302 4.88526 16.3892 4.94019 16.5156 5.04981C19.0127 7.2107 21.9275 8.62476 25.1792 9.25294C25.6319 9.34059 25.9373 9.77027 25.8745 10.2315Z" fill="#929495"/>
<path d="M13.4719 14.5667C13.1193 14.2796 11.9294 13.6868 11.0773 14.8126C10.2255 15.938 10.9706 16.92 11.3232 17.2071L12.6825 18.313C12.8832 18.4764 13.1786 18.4463 13.342 18.2454C13.5053 18.0445 13.475 17.7493 13.2743 17.5858L11.915 16.4798C11.7568 16.3509 11.4111 15.9312 11.8046 15.4041C12.1982 14.8773 12.7219 15.1648 12.8801 15.2938L15.6948 17.584C15.8806 17.7352 16.1503 17.722 16.3205 17.5533L20.4394 13.473C20.739 13.1761 21.2238 13.1785 21.5207 13.4781C21.8173 13.7774 21.8149 14.2625 21.5156 14.5591L16.6096 19.4195C16.2211 19.794 15.7934 19.638 15.5891 19.4693L14.8102 18.8358C14.6093 18.6724 14.3141 18.7027 14.1506 18.9034C13.9872 19.1041 14.0175 19.3995 14.2184 19.5628L14.9973 20.1966C15.2997 20.4427 15.6811 20.5784 16.0712 20.5784C16.5231 20.5784 16.9487 20.4034 17.2695 20.0855L22.1752 15.2254C22.842 14.5648 22.8471 13.4849 22.1865 12.8182C21.5261 12.1517 20.4462 12.1465 19.7795 12.8069L15.9597 16.5911L13.4719 14.5667Z" fill="#929495"/>
</svg>
