<svg width="24" height="24" viewBox="0 0 24 24" fill="none" xmlns="http://www.w3.org/2000/svg">
<g clip-path="url(#clip0)">
<path d="M17.9986 0.00499355L14.8864 0C11.3899 0 9.1303 2.31826 9.1303 5.90637V8.6296H6.00109C5.73069 8.6296 5.51172 8.84882 5.51172 9.11922V13.0649C5.51172 13.3353 5.73094 13.5542 6.00109 13.5542H9.1303V23.5104C9.1303 23.7808 9.34926 23.9997 9.61966 23.9997H13.7024C13.9728 23.9997 14.1918 23.7805 14.1918 23.5104V13.5542H17.8505C18.1209 13.5542 18.3399 13.3353 18.3399 13.0649L18.3414 9.11922C18.3414 8.98939 18.2897 8.86505 18.1981 8.77317C18.1065 8.68129 17.9816 8.6296 17.8518 8.6296H14.1918V6.32108C14.1918 5.21152 14.4562 4.64825 15.9015 4.64825L17.9981 4.6475C18.2682 4.6475 18.4872 4.42828 18.4872 4.15813V0.494361C18.4872 0.22446 18.2685 0.0054929 17.9986 0.00499355Z" fill="#CBA77D"/>
</g>
<defs>
<clipPath id="clip0">
<rect width="24" height="23.9997" fill="white"/>
</clipPath>
</defs>
</svg>
