<svg width="76" height="100" viewBox="0 0 76 100" fill="none" xmlns="http://www.w3.org/2000/svg">
<path d="M50.6744 12.46C39.6748 6.90183 26.4245 9.02703 17.7036 17.7481C7.56788 27.8837 6.55342 44.0451 15.3441 55.3408C15.6548 55.74 16.1193 55.949 16.5888 55.949C16.9271 55.949 17.2679 55.8406 17.5556 55.6166C18.2425 55.082 18.3659 54.0919 17.8316 53.405C10.0153 43.3617 10.9187 28.9905 19.9325 19.9767C27.6884 12.2204 39.4712 10.3302 49.2533 15.2729C50.0299 15.6659 50.9779 15.3538 51.3705 14.577C51.7629 13.8003 51.4515 12.8524 50.6744 12.46Z" fill="#929495"/>
<path d="M63.2595 25.0469C62.8669 24.2701 61.9195 23.9584 61.1421 24.3506C60.3654 24.743 60.0534 25.6906 60.4458 26.4678C65.3851 36.2483 63.4939 48.0295 55.7398 55.7835C46.7257 64.7972 32.3548 65.7003 22.3114 57.8845C21.6243 57.3501 20.6344 57.4735 20.0999 58.1602C19.5653 58.8471 19.6889 59.8372 20.3758 60.3718C25.5212 64.3761 31.6757 66.3456 37.8106 66.3456C45.144 66.3456 52.4497 63.5309 57.9687 58.012C66.6876 49.2932 68.8138 36.0455 63.2595 25.0469Z" fill="#929495"/>
<path d="M59.1871 19.045C58.7966 18.6032 58.3865 18.1669 57.9679 17.7486C57.5494 17.33 57.1132 16.9198 56.6714 16.5294C56.0193 15.9528 55.0232 16.0146 54.4472 16.6667C53.8705 17.3187 53.9318 18.3146 54.5839 18.8909C54.9775 19.2386 55.3662 19.6042 55.7392 19.9771C56.1119 20.3501 56.4775 20.7386 56.8254 21.1322C57.1367 21.4845 57.5707 21.6644 58.0068 21.6644C58.3777 21.6644 58.75 21.5341 59.0498 21.2693C59.7021 20.6931 59.7634 19.6972 59.1871 19.045Z" fill="#929495"/>
<path d="M75.0329 40.7052C76.0837 38.9811 76.0837 36.8397 75.0325 35.1161L72.9593 31.7163C72.6862 31.2682 72.5806 30.7362 72.6622 30.2182L73.2802 26.2919C73.5952 24.2909 72.7731 22.3079 71.1353 21.1163L67.9222 18.7792C67.4974 18.47 67.1954 18.019 67.0718 17.5085L66.136 13.6415C65.661 11.6772 64.1456 10.162 62.1815 9.68657L58.3143 8.75063C57.8038 8.62699 57.3524 8.32504 57.0436 7.90023L54.7061 4.68636C53.5147 3.04847 51.5315 2.226 49.5311 2.54124L45.6034 3.15921C45.0854 3.24066 44.5532 3.13519 44.1055 2.86214L40.7051 0.788307C38.9813 -0.262867 36.8399 -0.262671 35.1161 0.788307L31.716 2.86155C31.2684 3.1348 30.7366 3.23987 30.218 3.15862L26.2914 2.54065C24.291 2.22581 22.3076 3.04788 21.1162 4.68577L18.7791 7.89887C18.4699 8.32367 18.0188 8.62563 17.508 8.74926L13.641 9.685C11.6771 10.16 10.1615 11.6754 9.68612 13.6395L8.75019 17.5067C8.62655 18.0172 8.32479 18.4686 7.89979 18.7774L4.68592 21.1149C3.04803 22.3061 2.22615 24.2889 2.5408 26.2899L3.15877 30.2178C3.24022 30.736 3.13475 31.268 2.8617 31.7157L0.788063 35.1163C-0.26272 36.8401 -0.26272 38.9815 0.788258 40.7052L2.86151 44.1052C3.13455 44.5532 3.24022 45.0853 3.15858 45.6032L2.5406 49.5298C2.22557 51.5306 3.04764 53.5138 4.68553 54.7052L7.89862 57.0423C8.32343 57.3511 8.62538 57.8025 8.74901 58.313L9.68476 62.18C10.1598 64.1443 11.6752 65.6595 13.6393 66.1349L15.2541 66.5257L4.32557 90.9035C4.09334 91.4217 4.1576 92.0244 4.49412 92.4818C4.83045 92.9393 5.38651 93.1805 5.95057 93.1129L14.7439 92.0615L19.8096 99.3254C20.1061 99.7502 20.5899 99.9998 21.1018 99.9998C21.1508 99.9998 21.2004 99.9975 21.2496 99.993C21.8149 99.9398 22.308 99.5865 22.5402 99.0687L33.7014 74.1705L35.1157 75.0328C35.9776 75.5584 36.9438 75.8211 37.9102 75.8211C38.8766 75.8211 39.8428 75.5582 40.7047 75.0328L42.17 74.1394L53.3452 99.0687C53.5774 99.5869 54.0704 99.9398 54.6358 99.993C54.6852 99.9977 54.7346 100 54.7837 100C55.2956 100 55.7796 99.7504 56.0759 99.3256L61.1415 92.0617L69.9349 93.1131C70.4985 93.1801 71.055 92.9394 71.3913 92.482C71.7276 92.0246 71.7923 91.4219 71.5599 90.9037L60.6257 66.5124L62.1798 66.1365C64.1436 65.6615 65.6593 64.146 66.1347 62.182L67.0706 58.3148C67.1942 57.8042 67.4962 57.3529 67.921 57.0441L71.1349 54.7066C72.7728 53.5154 73.5946 51.5325 73.28 49.5316L72.662 45.6036C72.5806 45.0855 72.686 44.5534 72.9591 44.1058L75.0329 40.7052ZM20.8027 95.2398L16.7883 89.4832C16.4555 89.0058 15.8863 88.7504 15.3086 88.8199L8.34003 89.6531L18.2969 67.4415C18.4789 67.5753 18.6422 67.7357 18.7768 67.921L21.1143 71.1349C21.3363 71.4402 21.586 71.7169 21.858 71.9634L16.6172 83.6543C16.2613 84.4486 16.6164 85.3808 17.4106 85.7369C17.6199 85.8308 17.8389 85.8752 18.0541 85.8752C18.6561 85.8752 19.2311 85.5283 19.493 84.9435L24.7153 73.2943C25.2291 73.3648 25.7582 73.3636 26.2893 73.28L30.217 72.6621C30.4522 72.6252 30.6899 72.6285 30.9213 72.6668L20.8027 95.2398ZM67.5458 89.6527L60.577 88.8199C59.9987 88.7506 59.4302 89.0058 59.0973 89.4832L55.0829 95.2398L44.96 72.658C45.1723 72.6291 45.3889 72.6291 45.6032 72.6627L49.5296 73.2806C50.0821 73.3675 50.6327 73.3648 51.1661 73.2853L56.3923 84.9439C56.6546 85.5289 57.2292 85.8756 57.8311 85.8756C58.0466 85.8756 58.2655 85.8312 58.4747 85.7373C59.2688 85.3814 59.6241 84.4488 59.268 83.6547L54.0073 71.9193C54.261 71.6837 54.4956 71.423 54.7048 71.1355L57.0419 67.9224C57.1891 67.7199 57.3696 67.5462 57.5723 67.4058L67.5458 89.6527ZM72.3417 39.0642L70.2681 42.4647C69.6069 43.5495 69.3511 44.8382 69.5485 46.0933L70.1665 50.021C70.2964 50.847 69.9569 51.6655 69.281 52.1573L66.0669 54.495C65.0382 55.2435 64.3065 56.3366 64.0073 57.5732L63.0714 61.4404C62.8751 62.2511 62.2497 62.8767 61.4388 63.073L57.5716 64.0087C56.3348 64.3079 55.2415 65.0396 54.493 66.0685L52.1559 69.2816C51.6641 69.958 50.8458 70.297 50.0194 70.1669L46.0928 69.549C44.8376 69.3515 43.5487 69.607 42.4637 70.2685L39.0639 72.3418C38.3524 72.7753 37.468 72.7753 36.7569 72.3418L33.3563 70.2683C32.5106 69.7525 31.541 69.4837 30.56 69.4837C30.2826 69.4837 30.0039 69.5052 29.7276 69.5488L25.7996 70.1667C24.9735 70.2968 24.1551 69.9572 23.6633 69.2812L21.3256 66.0673C20.5772 65.0386 19.484 64.307 18.2475 64.0078L14.3803 63.0718C13.5695 62.8755 12.9439 62.2501 12.7477 61.4392L11.8119 57.5722C11.5127 56.3355 10.7812 55.2419 9.75214 54.4935L6.53924 52.1562C5.86307 51.6644 5.52381 50.8456 5.65389 50.0196L6.27186 46.0931C6.46932 44.8378 6.21385 43.5491 5.55233 42.4642L3.47908 39.064C3.04529 38.3524 3.04529 37.4683 3.47908 36.7569L5.55272 33.3563C6.21405 32.2716 6.46971 30.9829 6.27225 29.7278L5.65428 25.8001C5.5244 24.9741 5.86385 24.1555 6.53983 23.6637L9.7539 21.326C10.7826 20.5776 11.5143 19.4844 11.8135 18.2479L12.7494 14.3807C12.9457 13.57 13.5711 12.9444 14.382 12.7481L18.2492 11.8124C19.4859 11.5131 20.5793 10.7815 21.3276 9.75258L23.6647 6.53949C24.1565 5.86332 24.9748 5.52367 25.8012 5.65394L29.7278 6.27191C30.9832 6.46976 32.2721 6.2139 33.3569 5.55238L36.7567 3.47913C37.4682 3.04554 38.3526 3.04554 39.0637 3.47913L42.4643 5.55257C43.5491 6.21429 44.8381 6.46996 46.093 6.2723L50.021 5.65433C50.8467 5.52484 51.6655 5.8639 52.1573 6.53988L54.495 9.75375C55.2434 10.7825 56.3366 11.5141 57.5731 11.8133L61.4403 12.7493C62.2511 12.9456 62.8766 13.5709 63.0729 14.3819L64.0087 18.2489C64.3079 19.4856 65.0393 20.5792 66.0685 21.3276L69.2815 23.6647C69.9577 24.1565 70.297 24.9753 70.1669 25.8012L69.5489 29.7278C69.3515 30.9831 69.6069 32.2718 70.2685 33.3567L72.3417 36.7569C72.7757 37.4684 72.7757 38.3526 72.3417 39.0642Z" fill="#929495"/>
<path d="M56.351 33.0069C56.0038 31.9378 55.0946 31.1913 53.9782 31.0589L44.4956 29.9344L40.4959 21.2635C40.025 20.2428 39.0342 19.6086 37.91 19.6086C36.786 19.6086 35.795 20.2428 35.3241 21.2635L31.3244 29.9346L21.8418 31.0591C20.7254 31.1915 19.816 31.938 19.4689 33.0071C19.1217 34.0757 19.4186 35.2141 20.2436 35.9772L27.2543 42.4606L25.3934 51.8267C25.1744 52.9294 25.6033 54.0247 26.5129 54.6853C27.0147 55.0497 27.5969 55.2343 28.1828 55.2343C28.6592 55.2343 29.1377 55.1124 29.5774 54.8663L37.9098 50.2024L46.2422 54.8663C47.2233 55.4155 48.3973 55.3462 49.3069 54.6855C50.2165 54.0247 50.6454 52.9292 50.4262 51.8267L48.5653 42.4608L55.576 35.9774C56.4014 35.2143 56.6983 34.076 56.351 33.0069ZM45.778 40.7458C45.3756 41.1179 45.1956 41.6723 45.3022 42.2099L47.2065 51.794L38.6795 47.0212C38.4405 46.8874 38.1752 46.8204 37.9098 46.8204C37.6444 46.8204 37.3793 46.8872 37.1401 47.0212L28.6131 51.794L30.5174 42.2099C30.6244 41.6722 30.4442 41.1179 30.0416 40.7458L22.8674 34.111L32.5717 32.9604C33.1158 32.896 33.5875 32.5532 33.8172 32.0557L37.91 23.1825L42.0028 32.0557C42.2325 32.5532 42.7039 32.896 43.2483 32.9604L52.9522 34.111L45.778 40.7458Z" fill="#929495"/>
</svg>
