<svg width="93" height="100" viewBox="0 0 93 100" fill="none" xmlns="http://www.w3.org/2000/svg">
<path d="M91.0727 62.2122C90.785 61.3778 83.9608 41.7265 74.5444 36.7302C73.9799 36.4319 73.3892 36.1278 72.7837 35.8182C75.6109 26.2863 76.5249 18.3158 74.6683 11.4029C72.8589 4.65994 66.6551 -0.34397 60.5535 0.0185049C55.1794 0.333938 51.3648 4.65629 50.347 11.5787C50.0273 13.7539 50.044 15.7311 50.2849 17.5701C49.0247 19.3336 48.1631 20.8652 47.9081 21.3352L0.544889 97.0543C0.18272 97.6301 -0.265542 98.3477 0.197977 99.1956L0.644422 100H1.55584C2.35537 100 2.78329 99.4618 3.19523 98.9443L57.6772 30.3005C61.1532 33.2594 65.318 35.4951 69.0744 37.4078C67.3907 42.6345 65.16 48.3655 62.5191 54.6665C55.2695 71.9818 58.6478 86.2781 63.7545 89.5429C64.0106 89.7074 64.2965 89.7847 64.5824 89.7847C65.0917 89.7847 65.5886 89.5316 65.8839 89.067C66.3373 88.3476 66.1284 87.3881 65.4099 86.933C61.8151 84.6349 58.6307 71.9421 65.3608 55.8674C67.9509 49.6852 70.1573 44.0279 71.8541 38.8183C72.2849 39.0389 72.7041 39.2563 73.1084 39.4696C81.4489 43.8959 88.0965 63.0312 88.1604 63.2223C88.439 64.0307 89.3156 64.4592 90.1206 64.1817C90.9205 63.8984 91.3495 63.0184 91.0727 62.2122ZM51.7074 29.1956L48.6731 31.7125L49.8715 27.9473C50.2249 26.8446 50.8853 24.8903 51.7615 22.7943C52.4462 24.2839 53.3133 25.6456 54.3218 26.8916C53.1557 27.9739 52.1738 28.8087 51.7074 29.1956ZM56.5602 24.7168C55.2266 22.9948 54.2259 21.0421 53.6708 18.8162C55.1623 16.1461 56.9478 13.9877 58.8323 13.9877C59.3536 13.9877 59.8556 14.1368 60.3203 14.4333C61.0914 14.9223 61.5259 15.6604 61.5844 16.5669C61.7253 18.8085 59.1524 22.0485 56.5602 24.7168ZM69.9964 34.4037C66.4281 32.5778 62.6716 30.5197 59.6112 27.8795C61.6578 25.2247 65.6663 19.4087 65.132 15.1411C64.9456 13.6474 64.2177 12.4127 63.0291 11.5703C62.0432 10.8774 60.9636 10.5223 59.8182 10.5223C57.4385 10.5223 55.1438 12.1045 53.2066 14.061C53.2367 13.4038 53.2908 12.7314 53.3947 12.0294C54.1939 6.58353 56.8707 3.33037 60.7344 3.10355C60.8717 3.0959 61.0144 3.09006 61.1558 3.09006C65.2035 3.09006 70.1355 6.40412 71.695 12.2048C73.3518 18.3837 72.5428 25.6551 69.9964 34.4037Z" fill="#929495"/>
<path d="M2.76762 97.9337C1.12108 99.256 1.53271 97.9337 1.94435 97.1072L54.2219 17.7681C61.6313 9.50321 60.3964 20.2479 59.9848 20.6606L2.76762 97.9337Z" fill="white"/>
<path d="M61.329 32.0506C54.0842 29.0754 49.575 18.4144 50.2611 15.384C51.2217 12.0782 53.2345 8.59439 52.5758 13.2225C51.9172 17.8507 55.8689 24.2419 57.9271 26.859C60.8084 29.2006 68.5737 35.0258 61.329 32.0506Z" fill="#929495"/>
<path d="M70.4111 90.9102C69.9924 90.5446 69.5594 90.1822 69.1256 89.8324C68.3837 89.2354 67.3005 89.3562 66.7047 90.1024C66.6152 90.216 66.5409 90.3375 66.4832 90.4637C66.1608 91.1684 66.3415 92.0285 66.9697 92.5354C67.3693 92.8565 67.7665 93.1894 68.1516 93.5248C68.8684 94.1509 69.9562 94.0739 70.5797 93.3513C71.2048 92.6295 71.129 91.5359 70.4111 90.9102Z" fill="#929495"/>
<path d="M92.0355 69.5653C92.0334 69.0082 92.0193 68.4425 91.9953 67.8844C91.9534 66.9308 91.1489 66.1929 90.1971 66.235C90.0531 66.2424 89.9131 66.2664 89.7806 66.306C89.0402 66.5272 88.515 67.2306 88.5495 68.039C88.5724 68.5523 88.5848 69.0716 88.5876 69.5834C88.5911 70.5372 89.3659 71.3075 90.3182 71.3018C91.271 71.2978 92.0401 70.5197 92.0355 69.5653Z" fill="#929495"/>
<path d="M72.3075 6.00073C71.9636 5.56355 71.6049 5.12696 71.2432 4.70253C70.6243 3.97787 69.5376 3.89514 68.8143 4.51765C68.7055 4.6126 68.61 4.71818 68.53 4.83145C68.0832 5.46396 68.102 6.3428 68.6258 6.95779C68.9592 7.34766 69.2881 7.74867 69.6047 8.14983C70.1935 8.8984 71.2766 9.02503 72.0227 8.43092C72.7702 7.83784 72.8976 6.74908 72.3075 6.00073Z" fill="#FCFCFC"/>
</svg>
