<svg width="1360" height="42" viewBox="0 0 1360 42" fill="none" xmlns="http://www.w3.org/2000/svg">
<path d="M0 16.4849H594.565" stroke="#373737"/>
<g clip-path="url(#clip0)">
<path d="M615.895 1.04102H636.681V2.29081H627.282V24.1232H625.293V2.29081H615.895V1.04102Z" fill="#505050"/>
<path d="M639.802 24.1243V8.29352C639.809 7.94088 639.835 7.58889 639.88 7.23901C639.937 6.71247 640.064 6.19588 640.257 5.7028C640.49 5.08624 640.805 4.50386 641.193 3.97131C641.679 3.32496 642.283 2.77712 642.974 2.35699C643.854 1.82208 644.809 1.42272 645.808 1.17229C647.18 0.83091 648.592 0.673313 650.006 0.703619C651.399 0.690294 652.788 0.852124 654.14 1.18531C655.216 1.45729 656.242 1.89658 657.182 2.48718C657.95 2.97054 658.595 3.62562 659.067 4.40093C659.502 5.10948 659.732 5.92543 659.73 6.75732C659.754 8.04323 659.289 9.29019 658.43 10.2463C657.322 11.3793 655.892 12.143 654.335 12.4335C655.595 12.5363 656.816 12.9188 657.91 13.5531C658.651 14.0033 659.261 14.6409 659.678 15.4017C660.019 16.0418 660.218 16.7477 660.263 17.4717C660.263 18.1747 660.341 18.7736 660.341 19.2162V22.6401C660.336 22.9329 660.384 23.2242 660.484 23.4994C660.579 23.7597 660.657 23.968 660.718 24.1243H658.651C658.651 23.8769 658.508 23.5905 658.43 23.265C658.343 22.9773 658.29 22.6801 658.274 22.3798V18.4741C658.264 17.9143 658.203 17.3566 658.092 16.8078C657.942 16.1443 657.603 15.5384 657.117 15.0632C656.449 14.4279 655.644 13.9557 654.764 13.6833C653.365 13.3188 651.917 13.1782 650.474 13.2667H643.676V11.9648H649.057C650.165 11.9751 651.271 11.8748 652.359 11.6654C653.312 11.5004 654.236 11.1978 655.102 10.7671C655.844 10.3948 656.486 9.85018 656.974 9.1788C657.435 8.51526 657.672 7.72151 657.65 6.91354C657.664 6.17296 657.451 5.44591 657.039 4.83055C656.605 4.18971 656.032 3.65561 655.362 3.2683C654.58 2.80814 653.728 2.47837 652.84 2.2919C651.785 2.0649 650.708 1.95574 649.629 1.96643C648.519 1.94003 647.411 2.07599 646.341 2.37001C645.552 2.59282 644.805 2.94473 644.131 3.41151C643.614 3.78011 643.173 4.24408 642.831 4.77847C642.535 5.23061 642.304 5.72123 642.142 6.23657C642.012 6.66069 641.925 7.09685 641.882 7.53844C641.882 7.91598 641.882 8.17635 641.882 8.33258V24.1243H639.802Z" fill="#505050"/>
<path d="M668.323 1.04224H666.334V24.1244H668.323V1.04224Z" fill="#505050"/>
<path d="M674.367 8.48904C674.373 7.94514 674.408 7.40193 674.471 6.8617C674.541 6.22847 674.731 5.61436 675.03 5.0521C675.403 4.37774 675.892 3.7741 676.473 3.26854C677.242 2.59688 678.122 2.0639 679.073 1.69328C679.982 1.32039 680.934 1.06237 681.907 0.925176C682.923 0.779797 683.948 0.705844 684.975 0.703857C685.871 0.704469 686.765 0.765359 687.653 0.886119C688.494 1.00685 689.322 1.21184 690.123 1.498C690.673 1.6971 691.203 1.94546 691.709 2.24006C692.213 2.52857 692.681 2.87838 693.1 3.28156C693.512 3.67345 693.851 4.13647 694.101 4.64852C694.355 5.18988 694.484 5.78178 694.478 6.38001C694.479 7.2008 694.268 8.008 693.867 8.72338C693.395 9.53683 692.712 10.2072 691.891 10.6632C691.075 11.1294 690.2 11.484 689.291 11.7177C689.577 11.7177 689.941 11.8218 690.37 11.913C690.863 12.0174 691.346 12.1656 691.813 12.3556C692.364 12.6021 692.887 12.9076 693.373 13.2669C693.914 13.6283 694.4 14.0669 694.816 14.5688C695.212 15.0422 695.509 15.5914 695.687 16.1831C695.862 16.739 695.949 17.3187 695.947 17.9016C695.951 18.9141 695.637 19.9024 695.05 20.7266C694.517 21.4971 693.814 22.1342 692.996 22.5883C692.216 23.0348 691.381 23.3763 690.513 23.6038C689.708 23.8162 688.886 23.9514 688.056 24.0073C687.276 24.0724 686.6 24.0985 686.028 24.0985H678.228V22.7966H684.936C685.573 22.7966 686.236 22.7966 686.99 22.7966C687.72 22.7614 688.446 22.6656 689.161 22.5102C689.869 22.359 690.558 22.1275 691.215 21.8202C691.869 21.5134 692.45 21.0694 692.918 20.5183C693.257 20.1421 693.514 19.6985 693.672 19.2165C693.827 18.764 693.906 18.2889 693.906 17.8104C693.906 17.3065 693.827 16.8056 693.672 16.3263C693.505 15.8098 693.23 15.3349 692.866 14.9333C692.411 14.4009 691.859 13.9592 691.241 13.6314C690.64 13.3224 690.008 13.078 689.356 12.9024C688.72 12.7434 688.072 12.6346 687.419 12.5769C686.769 12.5769 686.197 12.4988 685.69 12.4988H678.241V11.1969H683.064H685.001C685.729 11.1697 686.454 11.0914 687.172 10.9626C687.897 10.8304 688.607 10.6254 689.291 10.3507C689.97 10.0899 690.596 9.70591 691.137 9.21809C691.548 8.86012 691.869 8.40948 692.073 7.9032C692.241 7.41285 692.329 6.89847 692.333 6.38001C692.333 4.55739 691.124 3.25552 688.693 2.4744C688.1 2.287 687.49 2.15623 686.873 2.08384C686.221 2.00551 685.566 1.96638 684.91 1.96667C684.106 1.96548 683.302 2.01766 682.505 2.1229C681.742 2.22976 680.995 2.43092 680.282 2.72176C679.513 3.00693 678.8 3.42559 678.176 3.95853C677.68 4.37465 677.27 4.88308 676.967 5.45568C676.726 5.94921 676.56 6.47565 676.473 7.01793C676.398 7.50917 676.359 8.00517 676.356 8.50206V24.1245H674.367V8.48904Z" fill="#505050"/>
<path d="M700.627 10.3375C700.627 9.66055 700.653 8.9315 700.705 8.15038C700.753 7.35094 700.942 6.56638 701.264 5.83305C701.641 5.01831 702.161 4.27762 702.798 3.64591C703.678 2.82878 704.706 2.188 705.827 1.75819C706.778 1.38091 707.767 1.1102 708.778 0.951034C710.932 0.618535 713.124 0.618535 715.277 0.951034C716.288 1.11185 717.277 1.3825 718.228 1.75819C719.345 2.18803 720.369 2.8289 721.244 3.64591C721.886 4.27425 722.406 5.01571 722.778 5.83305C723.077 6.57064 723.244 7.35496 723.272 8.15038C723.272 8.9315 723.272 9.66055 723.272 10.3375V24.1243H721.413V12.8762H704.514V11.5743H721.413V10.2724C721.413 9.53036 721.413 8.80131 721.309 8.08528C721.255 7.38474 721.083 6.69829 720.802 6.05437C720.485 5.37917 720.044 4.76972 719.502 4.25778C718.779 3.64556 717.951 3.16924 717.058 2.85176C716.287 2.53315 715.479 2.31018 714.654 2.18781C713.793 2.05762 712.924 1.99234 712.054 1.99253C711.183 1.99345 710.314 2.05872 709.454 2.18781C708.628 2.31169 707.821 2.53461 707.049 2.85176C706.154 3.19293 705.33 3.69602 704.618 4.3359C704.066 4.83925 703.624 5.45076 703.318 6.13248C703.033 6.78025 702.857 7.47097 702.798 8.17641C702.733 8.89244 702.707 9.62149 702.707 10.3636V24.1243H700.627V10.3375Z" fill="#505050"/>
<path d="M739.443 24.1244C738.09 24.1436 736.739 24.017 735.413 23.7469C734.442 23.5422 733.502 23.2095 732.619 22.7574C731.956 22.4055 731.366 21.9331 730.877 21.3644C730.479 20.8951 730.155 20.3684 729.915 19.8022C729.699 19.3105 729.563 18.7875 729.512 18.253C729.512 17.7452 729.434 17.3026 729.434 16.9511V1.04224H731.423V16.2741C731.423 17.0108 731.479 17.7463 731.592 18.4743C731.704 19.2619 732.027 20.0042 732.528 20.6224C733.188 21.3612 734.031 21.9134 734.971 22.2237C736.427 22.7165 737.96 22.9372 739.495 22.8746H744.929V24.1765L739.443 24.1244Z" fill="#505050"/>
<path d="M733.32 31.4929V35.5938C733.32 35.6849 733.32 35.8021 733.32 35.9453C733.32 36.0885 733.32 36.2447 733.32 36.4009C733.344 36.5551 733.379 36.7074 733.424 36.8566C733.469 37.0102 733.53 37.1586 733.606 37.2992C733.801 37.6194 734.08 37.8804 734.412 38.0543C734.793 38.2549 735.217 38.3577 735.647 38.3537C736.099 38.3726 736.548 38.2691 736.947 38.0543C737.286 37.8786 737.566 37.607 737.753 37.2732C737.821 37.1334 737.882 36.99 737.935 36.8436C737.978 36.6989 738.008 36.5508 738.026 36.4009C738.026 36.2447 738.026 36.1015 738.026 35.9583C738.026 35.8151 738.026 35.6979 738.026 35.5938V31.4929H738.624V35.6589C738.644 36.2166 738.542 36.7721 738.325 37.2862C738.15 37.6494 737.902 37.9729 737.597 38.2366C737.334 38.4565 737.029 38.6204 736.7 38.7182C736.452 38.7852 736.2 38.8374 735.946 38.8745V42.051H735.348V38.8224C734.962 38.8065 734.583 38.7182 734.23 38.562C733.95 38.4287 733.695 38.2482 733.476 38.0283C733.288 37.8339 733.135 37.6095 733.021 37.3643C732.914 37.1394 732.831 36.9037 732.774 36.6613C732.728 36.4555 732.698 36.2467 732.683 36.0364C732.683 35.8541 732.683 35.7109 732.683 35.6068V31.4929H733.32ZM729.342 31.4929H731.942V32.0527H729.342V36.2968C729.33 36.5266 729.33 36.7569 729.342 36.9868C729.358 37.2233 729.434 37.4518 729.563 37.6507C729.695 37.8777 729.909 38.0454 730.161 38.1194C730.4 38.1725 730.644 38.1987 730.889 38.1975H731.955V38.7573H730.889C730.478 38.7752 730.068 38.6949 729.693 38.523C729.431 38.3848 729.208 38.1835 729.043 37.9371C728.899 37.6988 728.806 37.4326 728.77 37.156C728.752 36.8829 728.752 36.6089 728.77 36.3358V29.462H729.368L729.342 31.4929ZM725.871 29.3969C725.864 29.273 725.906 29.1512 725.988 29.0584C726.09 28.9823 726.213 28.9412 726.339 28.9412C726.466 28.9412 726.589 28.9823 726.69 29.0584C726.772 29.1512 726.815 29.273 726.807 29.3969C726.813 29.5206 726.771 29.6418 726.69 29.7353C726.589 29.8114 726.466 29.8525 726.339 29.8525C726.213 29.8525 726.09 29.8114 725.988 29.7353C725.907 29.6418 725.865 29.5206 725.871 29.3969ZM726.638 31.4408V38.7052H726.04V31.4929L726.638 31.4408ZM723.531 27.9908V38.7052H722.946V27.9908H723.531ZM719.956 38.7052V35.4766C719.966 34.923 719.878 34.3721 719.696 33.8493C719.538 33.4268 719.295 33.0413 718.982 32.7166C718.702 32.423 718.36 32.1961 717.981 32.0527C717.598 31.9121 717.192 31.8415 716.785 31.8444C716.316 31.8393 715.851 31.9324 715.42 32.1178C715.018 32.2914 714.656 32.5437 714.354 32.8598C714.063 33.17 713.834 33.5322 713.678 33.9274C713.502 34.3383 713.418 34.7825 713.431 35.2292C713.424 35.6755 713.508 36.1185 713.678 36.5311C713.841 36.9056 714.08 37.2424 714.38 37.5205C714.709 37.7508 715.08 37.9145 715.472 38.0022C715.885 38.1677 716.326 38.2517 716.772 38.2496C717.219 38.2483 717.661 38.1553 718.072 37.9762C718.507 37.7793 718.907 37.5109 719.255 37.182V37.846C718.934 38.1293 718.57 38.358 718.176 38.523C717.723 38.7132 717.236 38.8063 716.746 38.7964C716.245 38.799 715.748 38.7153 715.277 38.549C714.803 38.3871 714.362 38.1401 713.977 37.82C713.605 37.4959 713.301 37.1023 713.08 36.6613C712.896 36.185 712.825 35.6726 712.872 35.1641C712.875 34.6826 712.968 34.2059 713.145 33.7581C713.329 33.28 713.597 32.839 713.938 32.4563C714.485 31.9007 715.179 31.5127 715.939 31.3375C716.699 31.1623 717.492 31.2071 718.228 31.4668C718.673 31.6222 719.081 31.8707 719.424 32.1959C719.795 32.564 720.083 33.0081 720.268 33.4978C720.5 34.0766 720.611 34.697 720.593 35.3204V38.6792L719.956 38.7052ZM705.995 31.4929V35.6068C705.988 36.1081 706.072 36.6065 706.242 37.0779C706.335 37.3116 706.473 37.5242 706.65 37.7032C706.826 37.8821 707.037 38.0236 707.269 38.1194C707.442 38.2033 707.626 38.2646 707.815 38.3017C708.002 38.349 708.194 38.3709 708.387 38.3667C708.575 38.3708 708.763 38.3489 708.946 38.3017C709.136 38.2687 709.32 38.2072 709.492 38.1194C709.726 38.0263 709.938 37.8857 710.114 37.7064C710.291 37.5272 710.429 37.3131 710.519 37.0779C710.689 36.6065 710.773 36.1081 710.766 35.6068V31.4929H711.364V35.6589C711.364 35.9583 711.364 36.2447 711.364 36.5181C711.326 36.7888 711.247 37.0522 711.13 37.2992C711.011 37.5593 710.848 37.797 710.649 38.0022C710.401 38.2404 710.121 38.442 709.817 38.6011C709.621 38.7024 709.417 38.7852 709.206 38.8484C709 38.9157 708.785 38.9509 708.569 38.9526C708.31 38.9553 708.053 38.9246 707.802 38.8615C707.541 38.8061 707.288 38.7187 707.048 38.6011C706.742 38.439 706.462 38.2328 706.216 37.9892C706.017 37.784 705.854 37.5462 705.735 37.2862C705.616 37.0408 705.541 36.7764 705.514 36.5051C705.493 36.2234 705.493 35.9405 705.514 35.6589V31.4929H705.995ZM698.91 38.3537C699.591 38.27 700.246 38.0438 700.834 37.6898C701.851 37.0807 702.613 36.1233 702.979 34.9949C703.146 34.4863 703.234 33.955 703.239 33.4196C703.243 32.7586 703.115 32.1034 702.862 31.4929C702.623 30.9004 702.269 30.3607 701.822 29.9046C701.379 29.4497 700.854 29.0831 700.275 28.824C699.659 28.56 698.995 28.427 698.325 28.4335C697.662 28.4264 697.006 28.5641 696.401 28.8371C695.23 29.3342 694.298 30.2679 693.801 31.4408C693.36 32.5279 693.318 33.7368 693.684 34.8517C693.846 35.3833 694.101 35.8815 694.438 36.3228C695.212 37.3434 696.347 38.0282 697.61 38.2366V38.8094C696.876 38.7221 696.167 38.4827 695.53 38.1064C694.95 37.7669 694.435 37.3259 694.009 36.8045C693.602 36.3061 693.281 35.7428 693.06 35.1381C692.856 34.5521 692.75 33.9362 692.748 33.3155C692.745 32.582 692.891 31.8555 693.177 31.1804C693.467 30.5232 693.872 29.9235 694.373 29.4099C694.883 28.9033 695.482 28.497 696.141 28.2122C696.829 27.9238 697.567 27.7777 698.312 27.7825C699.063 27.7743 699.807 27.9252 700.496 28.2252C701.156 28.5146 701.76 28.9203 702.277 29.4229C702.787 29.9296 703.193 30.531 703.473 31.1934C703.771 31.8607 703.922 32.5845 703.915 33.3155C703.912 33.9233 703.806 34.5263 703.603 35.0991C703.399 35.71 703.086 36.279 702.68 36.7785C702.233 37.298 701.701 37.7382 701.107 38.0803C700.429 38.4728 699.676 38.7168 698.897 38.7964V40.9705H698.234V35.789H698.897L698.91 38.3537ZM683.818 31.8444C683.372 31.8328 682.928 31.9171 682.518 32.0917C682.133 32.2457 681.784 32.476 681.491 32.7687C681.203 33.0657 680.973 33.4147 680.815 33.7972C680.471 34.6309 680.471 35.5672 680.815 36.4009C680.973 36.7834 681.203 37.1324 681.491 37.4294C681.784 37.7221 682.133 37.9524 682.518 38.1064C682.928 38.281 683.372 38.3653 683.818 38.3537C684.264 38.3641 684.707 38.2798 685.118 38.1064C685.498 37.9522 685.843 37.7218 686.132 37.4294C686.428 37.1363 686.662 36.7865 686.821 36.4009C687.164 35.5672 687.164 34.6309 686.821 33.7972C686.647 33.4175 686.4 33.0766 686.093 32.7947C685.804 32.5023 685.459 32.272 685.079 32.1178C684.681 31.9407 684.252 31.8477 683.818 31.8444ZM683.818 31.2976C684.327 31.2913 684.832 31.3933 685.3 31.597C685.752 31.7838 686.162 32.0581 686.509 32.4042C686.859 32.7442 687.138 33.1515 687.327 33.6019C687.526 34.0667 687.628 34.5674 687.626 35.073C687.627 35.5785 687.525 36.0789 687.327 36.5441C687.138 36.9945 686.859 37.4019 686.509 37.7418C686.162 38.0879 685.752 38.3622 685.3 38.549C684.83 38.7466 684.327 38.8485 683.818 38.8485C683.309 38.8485 682.805 38.7466 682.336 38.549C681.881 38.3596 681.466 38.0857 681.114 37.7418C680.771 37.3977 680.498 36.9911 680.308 36.5441C680.104 36.0808 680.002 35.5791 680.009 35.073C680.021 34.5619 680.146 34.0598 680.373 33.6019C680.563 33.1549 680.836 32.7484 681.179 32.4042C681.531 32.0603 681.946 31.7864 682.401 31.597C682.848 31.4021 683.33 31.3003 683.818 31.2976ZM676.967 31.4929H679.567V32.0527H676.967V36.2968C676.967 36.5181 676.967 36.7394 676.967 36.9868C676.987 37.2244 677.068 37.4529 677.201 37.6507C677.333 37.8777 677.547 38.0454 677.799 38.1194C678.033 38.1725 678.273 38.1987 678.514 38.1975H679.58V38.7573H678.514C678.106 38.7767 677.7 38.6962 677.331 38.523C677.067 38.3882 676.842 38.1861 676.681 37.9371C676.536 37.6988 676.443 37.4326 676.408 37.156C676.389 36.8829 676.389 36.6089 676.408 36.3358V29.462H677.006L676.967 31.4929ZM664.864 34.5913C664.845 34.3139 664.845 34.0355 664.864 33.7581C664.902 33.4791 664.981 33.2071 665.098 32.951C665.218 32.6872 665.38 32.4452 665.579 32.2349C665.824 31.997 666.105 31.7992 666.411 31.6491C666.623 31.5364 666.851 31.4573 667.087 31.4148C667.32 31.3891 667.556 31.3891 667.789 31.4148C668.027 31.3884 668.266 31.3884 668.504 31.4148C668.739 31.4613 668.967 31.5402 669.18 31.6491C669.484 31.8026 669.765 32 670.012 32.2349C670.211 32.4452 670.374 32.6872 670.493 32.951C670.612 33.2056 670.686 33.4785 670.714 33.7581C670.733 34.0355 670.733 34.3139 670.714 34.5913V38.7573H670.233V34.5913C670.236 34.0935 670.148 33.5993 669.973 33.1332C669.88 32.8995 669.742 32.6869 669.565 32.508C669.389 32.329 669.178 32.1875 668.946 32.0917C668.773 32.0078 668.589 31.9466 668.4 31.9095C668.21 31.8903 668.018 31.8903 667.828 31.9095C667.642 31.8903 667.455 31.8903 667.269 31.9095C667.079 31.9425 666.895 32.0039 666.723 32.0917C666.489 32.1848 666.277 32.3254 666.101 32.5047C665.924 32.684 665.786 32.898 665.696 33.1332C665.526 33.6002 665.442 34.0943 665.449 34.5913V38.7052H664.851L664.864 34.5913ZM659.17 31.8965C658.724 31.8849 658.281 31.9692 657.87 32.1438C657.488 32.3011 657.139 32.531 656.843 32.8208C656.555 33.1178 656.326 33.4668 656.167 33.8493C655.824 34.683 655.824 35.6192 656.167 36.453C656.326 36.8355 656.555 37.1844 656.843 37.4815C657.139 37.7713 657.488 38.0011 657.87 38.1584C658.679 38.4884 659.584 38.4884 660.392 38.1584C660.775 38.0011 661.124 37.7713 661.419 37.4815C661.707 37.1844 661.937 36.8355 662.095 36.453C662.439 35.6192 662.439 34.683 662.095 33.8493C661.937 33.4668 661.707 33.1178 661.419 32.8208C661.124 32.531 660.775 32.3011 660.392 32.1438C660.01 31.9619 659.594 31.8601 659.17 31.8444V31.8965ZM659.17 31.3497C659.68 31.3433 660.185 31.4454 660.652 31.6491C661.107 31.8385 661.521 32.1124 661.874 32.4563C662.217 32.8005 662.49 33.207 662.68 33.654C662.885 34.1169 662.987 34.6188 662.979 35.1251C662.986 35.6312 662.884 36.1329 662.68 36.5962C662.49 37.0432 662.217 37.4497 661.874 37.7939C661.521 38.1378 661.107 38.4117 660.652 38.6011C660.183 38.7987 659.679 38.9005 659.17 38.9005C658.661 38.9005 658.158 38.7987 657.688 38.6011C657.236 38.4143 656.826 38.14 656.479 37.7939C656.129 37.4539 655.85 37.0466 655.66 36.5962C655.463 36.1309 655.361 35.6306 655.361 35.1251C655.357 34.601 655.463 34.0819 655.673 33.6019C655.863 33.1515 656.142 32.7442 656.492 32.4042C656.839 32.0581 657.249 31.7838 657.701 31.597C658.165 31.3951 658.665 31.2931 659.17 31.2976V31.3497ZM652.879 29.4489C652.874 29.3864 652.884 29.3238 652.906 29.2653C652.929 29.2068 652.964 29.154 653.009 29.1104C653.101 29.0281 653.223 28.986 653.347 28.9933C653.41 28.9886 653.473 28.9966 653.534 29.0167C653.594 29.0368 653.65 29.0687 653.698 29.1104C653.741 29.1554 653.774 29.2085 653.797 29.2666C653.819 29.3247 653.829 29.3867 653.828 29.4489C653.829 29.5742 653.782 29.6951 653.698 29.7874C653.65 29.8292 653.594 29.861 653.534 29.8812C653.473 29.9013 653.41 29.9092 653.347 29.9046C653.223 29.9119 653.101 29.8698 653.009 29.7874C652.957 29.7377 652.918 29.6762 652.895 29.6082C652.873 29.5402 652.867 29.4676 652.879 29.3969V29.4489ZM653.646 31.4929V38.7573H653.074V31.4929H653.646ZM645.664 38.1454H649.239C649.409 38.1321 649.579 38.106 649.746 38.0673C649.916 38.0181 650.082 37.9527 650.24 37.872C650.391 37.7905 650.517 37.6689 650.604 37.5205C650.658 37.4368 650.698 37.3443 650.721 37.2471C650.727 37.1431 650.727 37.0387 650.721 36.9347C650.728 36.6277 650.627 36.3279 650.435 36.0885C650.243 35.8854 650.007 35.7294 649.746 35.6328C649.284 35.4442 648.805 35.3003 648.316 35.2032L647.692 35.073L647.068 34.8908C646.879 34.8285 646.697 34.7501 646.522 34.6564C646.356 34.5692 646.207 34.4548 646.08 34.3179C645.933 34.1638 645.819 33.9825 645.742 33.7842C645.676 33.5868 645.641 33.3804 645.638 33.1723C645.631 32.9104 645.689 32.6509 645.807 32.4172C645.91 32.2106 646.056 32.0286 646.236 31.8834C646.393 31.7609 646.568 31.6642 646.756 31.597C646.949 31.5339 647.15 31.4988 647.354 31.4929H647.874H650.786V32.0527H647.874C647.627 32.0333 647.379 32.0333 647.133 32.0527C647.005 32.0812 646.883 32.1351 646.776 32.2111C646.669 32.2871 646.578 32.3837 646.509 32.4953C646.443 32.5994 646.394 32.7138 646.366 32.8338C646.353 32.9506 646.353 33.0685 646.366 33.1853C646.362 33.4416 646.45 33.6907 646.613 33.8883C646.806 34.1082 647.059 34.2666 647.341 34.344C647.768 34.4767 648.202 34.5853 648.641 34.6694C649.157 34.7781 649.665 34.9217 650.162 35.0991C650.483 35.2137 650.779 35.3906 651.033 35.6198C651.188 35.7842 651.308 35.9793 651.384 36.1926C651.462 36.405 651.502 36.63 651.501 36.8566C651.5 37.0236 651.478 37.1898 651.436 37.3513C651.395 37.5107 651.324 37.6609 651.228 37.7939C651.093 38.0114 650.905 38.1907 650.682 38.3147C650.473 38.4333 650.25 38.5251 650.019 38.5881C649.806 38.643 649.588 38.6736 649.369 38.6792H648.901H645.664V38.1454ZM638.787 38.1454H642.362C642.537 38.1322 642.711 38.1061 642.882 38.0673C643.048 38.0184 643.209 37.953 643.363 37.872C643.518 37.7908 643.648 37.6694 643.74 37.5205C643.79 37.436 643.825 37.3435 643.844 37.2471C643.856 37.1434 643.856 37.0385 643.844 36.9347C643.85 36.63 643.753 36.3322 643.571 36.0885C643.377 35.8884 643.142 35.733 642.882 35.6328C642.42 35.4442 641.941 35.3003 641.452 35.2032L640.815 35.073L640.191 34.8908C640.003 34.8285 639.82 34.7501 639.645 34.6564C639.482 34.5659 639.333 34.4519 639.203 34.3179C639.06 34.1633 638.95 33.9819 638.878 33.7842C638.802 33.5891 638.762 33.3817 638.761 33.1723C638.761 32.925 638.815 32.6806 638.918 32.4559C639.021 32.2313 639.172 32.0315 639.359 31.8704C639.521 31.7476 639.7 31.6509 639.892 31.584C640.076 31.5189 640.269 31.4794 640.464 31.4668H641.023H643.974V32.0266H640.945C640.694 32.0068 640.442 32.0068 640.191 32.0266C639.937 32.0888 639.718 32.2476 639.58 32.4693C639.505 32.5697 639.451 32.6851 639.424 32.8078C639.411 32.9246 639.411 33.0424 639.424 33.1593C639.425 33.417 639.517 33.6659 639.684 33.8623C639.872 34.0818 640.121 34.2404 640.399 34.3179C640.826 34.4516 641.26 34.5603 641.699 34.6434C642.215 34.7521 642.723 34.8956 643.22 35.073C643.539 35.1846 643.831 35.362 644.078 35.5938C644.233 35.7582 644.353 35.9533 644.429 36.1666C644.508 36.379 644.547 36.604 644.546 36.8305C644.566 36.9948 644.566 37.161 644.546 37.3252C644.495 37.4809 644.425 37.6297 644.338 37.7679C644.2 37.9826 644.013 38.1611 643.792 38.2886C643.58 38.4096 643.352 38.5016 643.116 38.562C642.908 38.6161 642.694 38.6467 642.479 38.6532H641.998H638.774L638.787 38.1454ZM636.655 38.7052V35.4766C636.672 34.9226 636.583 34.3705 636.395 33.8493C636.236 33.4268 635.993 33.0413 635.68 32.7166C635.4 32.423 635.058 32.1961 634.679 32.0527C633.844 31.7233 632.915 31.7233 632.079 32.0527C631.678 32.2263 631.316 32.4786 631.013 32.7947C630.727 33.1083 630.499 33.4696 630.337 33.8623C630.169 34.2753 630.085 34.718 630.09 35.1641C630.08 35.612 630.169 36.0565 630.35 36.466C630.505 36.8425 630.74 37.1803 631.039 37.4554C631.345 37.7477 631.708 37.9737 632.105 38.1194C632.519 38.2843 632.96 38.3682 633.405 38.3667C633.917 38.3622 634.42 38.2373 634.874 38.0022C635.31 37.8054 635.71 37.537 636.057 37.2081V37.872C635.737 38.1554 635.372 38.3841 634.978 38.549C634.526 38.7403 634.039 38.8335 633.548 38.8224C633.048 38.825 632.551 38.7414 632.079 38.575C631.607 38.4101 631.167 38.1633 630.779 37.846C630.408 37.522 630.103 37.1284 629.882 36.6873C629.646 36.206 629.53 35.6743 629.544 35.1381C629.548 34.6566 629.641 34.1799 629.817 33.7321C629.991 33.2488 630.261 32.8059 630.61 32.4302C630.978 32.0451 631.42 31.7394 631.91 31.5319C632.442 31.338 633.009 31.2581 633.574 31.2976C634.015 31.2939 634.454 31.3598 634.874 31.4929C635.314 31.6516 635.717 31.8998 636.057 32.2219C636.429 32.5901 636.717 33.0341 636.902 33.5238C637.134 34.1027 637.244 34.723 637.227 35.3464V38.7052H636.655ZM621.693 38.7052V31.4929C621.669 30.8648 621.78 30.239 622.018 29.6572C622.201 29.2224 622.481 28.835 622.836 28.5246C623.156 28.2585 623.528 28.0632 623.928 27.9518C624.306 27.8513 624.695 27.7988 625.085 27.7956C625.588 27.7869 626.088 27.8799 626.554 28.069C626.954 28.2393 627.312 28.4922 627.607 28.811C627.889 29.1129 628.11 29.4666 628.257 29.8525C628.399 30.2493 628.469 30.668 628.465 31.0893C628.474 31.5312 628.408 31.9714 628.27 32.3912C628.133 32.779 627.916 33.1337 627.633 33.4327C627.334 33.7483 626.964 33.989 626.554 34.1357C626.053 34.3289 625.519 34.4218 624.981 34.4091H622.927V33.8232H624.981H625.618C625.946 33.7795 626.262 33.6782 626.554 33.5238C626.899 33.3365 627.193 33.0685 627.412 32.7427C627.682 32.2918 627.809 31.7699 627.776 31.2455C627.79 30.835 627.714 30.4264 627.555 30.0478C627.426 29.7181 627.226 29.4205 626.97 29.1755C626.714 28.9507 626.419 28.7742 626.099 28.6548C625.453 28.4466 624.757 28.4466 624.11 28.6548C623.786 28.7495 623.487 28.9189 623.239 29.1495C622.962 29.4172 622.745 29.7412 622.602 30.0999C622.42 30.5953 622.337 31.1215 622.356 31.6491V38.7964L621.693 38.7052Z" fill="#505050"/>
</g>
<path d="M765.434 16.4849H1360" stroke="#373737"/>
<defs>
<clipPath id="clip0">
<rect width="129.892" height="41.751" fill="white" transform="translate(615.44 0.248047)"/>
</clipPath>
</defs>
</svg>
