<svg width="100" height="100" viewBox="0 0 100 100" fill="none" xmlns="http://www.w3.org/2000/svg">
<g clip-path="url(#clip0)">
<path d="M93.2687 73.4254C87.5737 68.2328 84.308 60.8453 84.308 53.1563C84.308 46.0152 87.0424 39.2533 92.0074 34.1141C93.0501 33.0353 93.3337 31.4652 92.729 30.1147C89.9824 23.9754 86.3101 18.5363 81.8152 13.9495C80.7924 12.9058 79.2597 12.5679 77.9098 13.0882C76.4726 13.6406 74.956 13.9213 73.4019 13.9213C67.3491 13.9213 62.1724 9.62519 61.093 3.70629C60.8323 2.28036 59.6971 1.12755 58.2677 0.837634C53.0649 -0.215988 47.6168 -0.275497 42.4042 0.658343C40.9158 0.925372 39.7439 2.10259 39.4886 3.58651C38.7914 7.63849 36.1251 11.0824 32.3572 12.7983C31.6203 13.1347 31.2954 14.0037 31.6318 14.74C31.9681 15.4754 32.838 15.7997 33.5765 15.464C38.2281 13.3453 41.5197 9.09037 42.382 4.08242C42.4286 3.80929 42.6465 3.59185 42.9232 3.54226C47.7728 2.67327 52.8425 2.7282 57.6844 3.70935C57.9481 3.76275 58.1576 3.97256 58.205 4.2312C59.5389 11.544 65.9303 16.851 73.4027 16.851C75.3191 16.851 77.1904 16.5046 78.9662 15.821C79.2169 15.7257 79.5189 15.7959 79.7169 15.998C83.9679 20.3361 87.4445 25.4875 90.0489 31.3088C90.1628 31.5628 90.1024 31.8657 89.8945 32.0801C84.399 37.7678 81.3726 45.253 81.3726 53.1556C81.3726 61.6654 84.9869 69.8426 91.2888 75.5883C91.4838 75.7661 91.5503 76.0598 91.4547 76.3185C89.7967 80.7947 87.605 84.9885 84.9402 88.7834C84.7629 89.0359 84.4304 89.1336 84.1322 89.0222C82.3052 88.3379 80.401 87.8274 78.4739 87.5055C77.6751 87.3735 76.9175 87.9098 76.7837 88.7086C76.65 89.5059 77.1897 90.2612 77.9893 90.3947C79.7306 90.6854 81.4498 91.147 83.0995 91.765C83.5199 91.9229 83.9541 91.9984 84.383 91.9984C85.538 91.9984 86.6533 91.4476 87.3444 90.4649C90.1529 86.4633 92.4622 82.0459 94.2075 77.3347C94.7211 75.9484 94.3527 74.4142 93.2687 73.4254Z" fill="#929495"/>
<path d="M72.1522 87.1117C64.1089 87.4344 56.6419 90.8432 51.1265 96.7087C50.9071 96.9422 50.6059 97.0704 50.2795 97.0704C49.9531 97.0704 49.6527 96.9422 49.4325 96.7087C43.684 90.5938 35.5657 87.0865 27.1593 87.0865C23.1613 87.0865 19.2764 87.8456 15.611 89.3425C15.426 89.4181 15.2051 89.3532 15.0858 89.1877C12.4401 85.4966 10.2439 81.4125 8.55908 77.0485C8.45512 76.7792 8.52774 76.4763 8.74025 76.2962C15.5544 70.5086 19.4629 62.0742 19.4629 53.1562C19.4629 44.8478 16.1652 37.0925 10.1766 31.317C9.97099 31.1187 9.91442 30.8104 10.036 30.5503C12.6564 24.9182 16.1033 19.9332 20.2786 15.7347C20.4766 15.5356 20.7877 15.486 21.0721 15.6081C22.9969 16.4328 25.0448 16.8509 27.1593 16.8509C27.9696 16.8509 28.627 16.1948 28.627 15.386C28.627 14.5766 27.9696 13.9212 27.1593 13.9212C25.4446 13.9212 23.7866 13.5832 22.2294 12.9156C20.8313 12.3167 19.2474 12.6127 18.1955 13.6709C13.7794 18.1113 10.1376 23.3756 7.37345 29.3158C6.72521 30.7082 7.03251 32.3592 8.13711 33.4243C13.547 38.642 16.5268 45.6496 16.5268 53.1555C16.5268 61.2136 12.9951 68.8347 6.83758 74.0654C5.67717 75.0504 5.2682 76.6724 5.82012 78.1014C7.5936 82.6966 9.90831 87.0003 12.6985 90.8921C13.6143 92.1692 15.2693 92.6468 16.7217 92.054C20.0332 90.7013 23.5443 90.0162 27.1585 90.0162C34.8693 90.0162 42.0191 93.1046 47.2921 98.713C48.0604 99.5309 49.1497 99.9993 50.2795 100C51.4086 100 52.4979 99.5309 53.2662 98.713C58.2526 93.4113 65.0017 90.3305 72.27 90.0383C73.0803 90.0063 73.7102 89.3242 73.6773 88.5163C73.6452 87.7083 72.9664 87.0865 72.1522 87.1117Z" fill="#929495"/>
<path d="M23.8794 19.7954C23.4628 19.7214 23.0454 19.6329 22.6372 19.5322C21.8499 19.3361 21.0541 19.8152 20.8592 20.6003C20.6635 21.3854 21.1428 22.1804 21.9294 22.3749C22.4018 22.4924 22.8857 22.5946 23.3673 22.6801C23.4537 22.6953 23.54 22.703 23.6249 22.703C24.3236 22.703 24.9428 22.2032 25.0681 21.4929C25.2096 20.6964 24.6775 19.9365 23.8794 19.7954Z" fill="#929495"/>
<path d="M19.7413 84.6372C19.8437 84.6372 19.9469 84.6266 20.0501 84.6044C20.4767 84.5129 20.9109 84.429 21.339 84.355C22.137 84.2169 22.6721 83.4585 22.5338 82.6612C22.3946 81.8639 21.6356 81.3299 20.836 81.4687C20.3704 81.5496 19.8988 81.6404 19.4355 81.7396C18.6428 81.909 18.1375 82.6879 18.3072 83.4783C18.4555 84.1665 19.064 84.6372 19.7413 84.6372Z" fill="#929495"/>
<path d="M24.1401 55.3142C24.1501 55.315 24.16 55.315 24.1699 55.315C24.9672 55.315 25.6208 54.6779 25.6369 53.8792C25.6415 53.6381 25.6438 53.397 25.6438 53.1566C25.6438 52.9217 25.6415 52.6874 25.6377 52.454C25.6224 51.6544 24.968 51.0166 24.1707 51.0166C24.1608 51.0166 24.1516 51.0166 24.1424 51.0166C23.3321 51.0319 22.6869 51.7002 22.7022 52.5089C22.7061 52.7241 22.7083 52.94 22.7083 53.1574C22.7083 53.3787 22.7061 53.5999 22.7015 53.8212C22.6854 54.6299 23.3298 55.2982 24.1401 55.3142Z" fill="#929495"/>
<path d="M23.6116 41.0829C23.4549 40.6358 23.2875 40.1864 23.1139 39.747C22.8166 38.9947 21.965 38.6255 21.2097 38.9215C20.456 39.2183 20.086 40.0689 20.3826 40.822C20.5424 41.2248 20.696 41.6375 20.8397 42.0488C21.0507 42.653 21.6187 43.0314 22.2257 43.0314C22.3854 43.0314 22.549 43.0047 22.7088 42.949C23.4747 42.6828 23.8784 41.8474 23.6116 41.0829Z" fill="#929495"/>
<path d="M24.9459 45.9908C24.7892 45.1966 24.0179 44.6809 23.2221 44.8373C22.4271 44.9937 21.9088 45.7643 22.0663 46.5577C22.1504 46.9842 22.2276 47.4175 22.2956 47.8478C22.4087 48.5704 23.0333 49.0861 23.7434 49.0861C23.8191 49.0861 23.8956 49.08 23.9735 49.0678C24.7739 48.9419 25.3212 48.1927 25.1951 47.3931C25.1217 46.9254 25.0376 46.4532 24.9459 45.9908Z" fill="#929495"/>
<path d="M55.6896 7.43571C55.5099 6.90547 55.0429 6.52323 54.4864 6.45152C54.2914 6.42634 54.0965 6.40269 53.9008 6.38133C53.0966 6.28596 52.3689 6.86808 52.2779 7.67222C52.2015 8.34972 52.6005 8.97075 53.209 9.20421C53.4383 9.77413 53.988 10.1236 54.572 10.1236C54.7455 10.1236 54.9229 10.0923 55.0956 10.0267C55.8524 9.73751 56.2316 8.89064 55.9418 8.13533C55.8524 7.90187 55.7683 7.66688 55.6896 7.43571Z" fill="#929495"/>
<path d="M58.0629 12.1203C57.5981 11.4573 56.6839 11.2963 56.0188 11.7595C55.3545 12.2233 55.1932 13.1366 55.658 13.7996C55.9378 14.1986 56.2344 14.593 56.5409 14.9722C56.8314 15.3315 57.2557 15.5177 57.6845 15.5177C58.0079 15.5177 58.3335 15.4117 58.6049 15.1927C59.2363 14.6846 59.3349 13.7629 58.8258 13.1327C58.5613 12.8054 58.3045 12.4652 58.0629 12.1203Z" fill="#929495"/>
<path d="M25.9514 83.8783C25.9682 83.8783 25.9851 83.8783 26.0019 83.8775C26.3841 83.8645 26.7732 83.8577 27.1554 83.8577L27.3175 83.8584H27.3228C28.1308 83.8584 28.7875 83.2061 28.7905 82.3989C28.7928 81.5894 28.1385 80.9318 27.3274 80.9287L27.1607 80.928C26.7403 80.928 26.3168 80.9348 25.9025 80.9493C25.093 80.9768 24.4577 81.6543 24.4852 82.4622C24.5128 83.2549 25.1641 83.8783 25.9514 83.8783Z" fill="#929495"/>
<path d="M23.087 66.5775C23.262 66.1365 23.4294 65.6871 23.5854 65.2431C23.8537 64.4794 23.4508 63.6432 22.6856 63.3762C21.9212 63.1084 21.0834 63.5104 20.8151 64.2741C20.6721 64.6823 20.5177 65.0951 20.3572 65.5009C20.0591 66.2532 20.4283 67.1039 21.1828 67.4014C21.3594 67.4709 21.5421 67.5044 21.7217 67.5044C22.3065 67.5044 22.8592 67.1535 23.087 66.5775Z" fill="#929495"/>
<path d="M24.9321 60.3406C25.0246 59.8783 25.1094 59.4068 25.1843 58.9391C25.3128 58.1403 24.7677 57.3888 23.9674 57.2614C23.1662 57.1332 22.414 57.6772 22.2856 58.476C22.2168 58.9063 22.1381 59.3404 22.0532 59.7654C21.8942 60.5588 22.4094 61.3309 23.2045 61.4896C23.3015 61.5087 23.3986 61.5178 23.4942 61.5178C24.1791 61.5178 24.7922 61.0364 24.9321 60.3406Z" fill="#929495"/>
<path d="M57.5893 84.5104C57.1612 84.7141 56.7324 84.9285 56.3135 85.1475C55.5957 85.5236 55.3189 86.4086 55.6958 87.125C55.958 87.6247 56.4687 87.9101 56.9969 87.9101C57.2262 87.9101 57.4594 87.8559 57.6772 87.7422C58.0625 87.5401 58.4577 87.3432 58.8521 87.1555C59.5837 86.8076 59.8941 85.9333 59.5455 85.2032C59.1969 84.4723 58.3201 84.1625 57.5893 84.5104Z" fill="#929495"/>
<path d="M35.2131 18.2795C34.8309 18.4603 34.4388 18.6297 34.0474 18.7838C33.2929 19.0798 32.9214 19.9305 33.2187 20.6827C33.4458 21.2595 33.9992 21.612 34.5848 21.612C34.7637 21.612 34.9448 21.5792 35.1214 21.5105C35.5747 21.332 36.0288 21.1359 36.4699 20.9276C37.2022 20.5813 37.5148 19.7069 37.1678 18.976C36.8207 18.2451 35.9455 17.9339 35.2131 18.2795Z" fill="#929495"/>
<path d="M39.9645 18.4628C40.2917 18.4628 40.6212 18.3537 40.8941 18.1309C41.2725 17.8211 41.644 17.4961 41.9987 17.1642C42.5896 16.6096 42.6179 15.6826 42.0629 15.0936C41.5079 14.5039 40.5791 14.4749 39.9882 15.0288C39.6824 15.3156 39.3614 15.5971 39.0334 15.8642C38.4066 16.3776 38.3149 17.3 38.8286 17.9264C39.1191 18.2796 39.5403 18.4628 39.9645 18.4628Z" fill="#929495"/>
<path d="M18.3627 36.6074C18.6333 37.0819 19.1294 37.3482 19.6401 37.3482C19.8862 37.3482 20.1346 37.2871 20.364 37.1574C21.0688 36.7577 21.3157 35.8635 20.9151 35.1601C20.6812 34.7488 20.4358 34.3368 20.1851 33.9348C19.757 33.2481 18.8519 33.0376 18.1632 33.4648C17.4752 33.892 17.2642 34.7954 17.6923 35.482C17.9224 35.8513 18.1479 36.2297 18.3627 36.6074Z" fill="#929495"/>
<path d="M27.0324 21.597C27.0836 22.3722 27.7288 22.9665 28.4963 22.9665C28.5284 22.9665 28.5605 22.9657 28.5926 22.9634C29.0795 22.9322 29.5711 22.8833 30.0534 22.8193C30.8568 22.7124 31.4217 21.9762 31.3147 21.1743C31.2085 20.3725 30.467 19.8079 29.6666 19.9155C29.2485 19.9704 28.8234 20.0124 28.4022 20.0398C27.5935 20.0925 26.9804 20.7898 27.0324 21.597Z" fill="#929495"/>
<path d="M36.887 83.7377C36.6309 84.5052 37.0475 85.3345 37.8166 85.5893C38.2271 85.7259 38.6429 85.8732 39.0534 86.0273C39.2239 86.0914 39.3989 86.1211 39.5709 86.1211C40.1641 86.1211 40.7229 85.7595 40.9446 85.1728C41.2305 84.4152 40.8468 83.5706 40.0884 83.2853C39.642 83.1182 39.1895 82.9572 38.743 82.8092C37.9733 82.5544 37.1423 82.9694 36.887 83.7377Z" fill="#929495"/>
<path d="M30.7429 82.5477C30.6267 83.348 31.1824 84.0911 31.9851 84.2078C32.4132 84.2689 32.8489 84.3413 33.2793 84.4207C33.3702 84.4375 33.4597 84.4459 33.5484 84.4459C34.2425 84.4459 34.8594 83.953 34.9901 83.2473C35.1376 82.4523 34.6109 81.6878 33.8144 81.5406C33.3458 81.4536 32.8718 81.375 32.4055 81.3079C31.6052 81.1927 30.8591 81.7466 30.7429 82.5477Z" fill="#929495"/>
<path d="M16.4589 28.3679C15.7457 27.9811 14.8551 28.2451 14.4683 28.9554C14.3842 29.1095 14.3016 29.2628 14.2191 29.4177C13.9332 29.9556 14.0104 30.614 14.4125 31.071C14.5937 31.277 14.7718 31.4845 14.9468 31.6943C15.2365 32.0415 15.6539 32.2208 16.0744 32.2208C16.4061 32.2208 16.7394 32.1094 17.0139 31.8805C17.6307 31.367 17.7187 30.4553 17.2149 29.8343C17.286 29.2544 17.0039 28.6639 16.4589 28.3679Z" fill="#929495"/>
<path d="M16.9935 74.4476C16.3705 73.9303 15.4448 74.015 14.9265 74.6368C14.6498 74.9687 14.3608 75.3021 14.0673 75.6279C13.5253 76.2291 13.5735 77.1553 14.1758 77.6962C14.4564 77.9487 14.808 78.0731 15.1581 78.0731C15.5595 78.0731 15.9593 77.9091 16.249 77.5879C16.5678 77.2346 16.8827 76.8722 17.1839 76.5106C17.7022 75.888 17.6173 74.9649 16.9935 74.4476Z" fill="#929495"/>
<path d="M17.4779 26.6984C17.731 26.8701 18.0184 26.9532 18.3035 26.9532C18.7721 26.9532 19.2331 26.7289 19.5174 26.3131C19.7689 25.9454 20.0258 25.5807 20.2804 25.2297C20.7574 24.5751 20.6114 23.6596 19.9555 23.1835C19.2988 22.7082 18.3807 22.8539 17.9053 23.5085C17.6331 23.8831 17.3595 24.2715 17.0919 24.6629C16.6355 25.3312 16.8083 26.2429 17.4779 26.6984Z" fill="#929495"/>
<path d="M14.7002 79.4108C13.9816 79.7861 13.7049 80.6719 14.081 81.3883C14.2997 81.8041 14.5252 82.2207 14.7522 82.6258C15.0213 83.1057 15.5205 83.3758 16.0349 83.3758C16.2772 83.3758 16.5226 83.3155 16.7497 83.1889C17.4568 82.7944 17.7098 81.9018 17.3146 81.1961C17.1005 80.8138 16.8873 80.4209 16.6816 80.0288C16.3048 79.3116 15.418 79.0354 14.7002 79.4108Z" fill="#929495"/>
<path d="M18.1398 72.8613C18.3806 73.0101 18.6482 73.081 18.9119 73.081C19.4027 73.081 19.8827 72.8354 20.161 72.3883C20.411 71.9847 20.6563 71.5719 20.8895 71.1622C21.2885 70.4581 21.0408 69.5646 20.3353 69.1656C19.6297 68.7666 18.7345 69.0138 18.3348 69.718C18.1215 70.0949 17.896 70.4733 17.6659 70.8441C17.2386 71.5315 17.4511 72.4348 18.1398 72.8613Z" fill="#929495"/>
<path d="M75.3969 49.2589C75.3472 49.7274 75.306 50.2042 75.2739 50.6757C75.2196 51.4837 75.8311 52.1818 76.6399 52.2359C76.6735 52.2382 76.7064 52.2397 76.74 52.2397C77.5052 52.2397 78.1504 51.6469 78.2032 50.8733C78.2322 50.4384 78.2704 49.999 78.3163 49.5671C78.4019 48.763 77.8171 48.0413 77.0114 47.9566C76.2049 47.8696 75.4818 48.454 75.3969 49.2589Z" fill="#929495"/>
<path d="M76.6582 42.8788C76.5252 43.332 76.3998 43.7951 76.2844 44.2544C76.0879 45.0394 76.5657 45.8344 77.3523 46.0313C77.4715 46.0602 77.5915 46.0747 77.7093 46.0747C78.3667 46.0747 78.9652 45.6307 79.1326 44.9654C79.2381 44.5428 79.3536 44.1178 79.4751 43.7012C79.7029 42.9253 79.2572 42.1113 78.479 41.8847C77.7009 41.6565 76.8852 42.1021 76.6582 42.8788Z" fill="#929495"/>
<path d="M83.5853 26.0907C83.1526 25.4072 82.246 25.2034 81.5611 25.6353C80.8754 26.0679 80.6713 26.9727 81.1039 27.6563C81.3394 28.0279 81.5733 28.4086 81.798 28.787C82.0725 29.2486 82.5602 29.5049 83.0616 29.5049C83.3162 29.5049 83.5746 29.4385 83.8093 29.2997C84.5064 28.8862 84.7365 27.9874 84.323 27.2924C84.0837 26.8895 83.8353 26.486 83.5853 26.0907Z" fill="#929495"/>
<path d="M79.7818 20.8862C79.2604 20.2659 78.3355 20.185 77.714 20.7046C77.0933 21.2249 77.0115 22.1489 77.5328 22.7684C77.8126 23.1018 78.0947 23.4474 78.3691 23.7953C78.6588 24.1615 79.0884 24.353 79.5226 24.353C79.8406 24.353 80.1609 24.25 80.4308 24.0379C81.0668 23.5374 81.1761 22.6158 80.6739 21.981C80.3811 21.6102 80.0807 21.2417 79.7818 20.8862Z" fill="#929495"/>
<path d="M82.8418 34.7475C83.3073 34.7475 83.766 34.5262 84.0511 34.1142C84.298 33.7579 84.5557 33.4001 84.8171 33.0515C85.3033 32.4045 85.1718 31.4859 84.5235 31.0007C83.8753 30.5154 82.9549 30.6467 82.4687 31.2936C82.1836 31.6728 81.9031 32.0627 81.6347 32.451C81.1746 33.1171 81.342 34.0288 82.0093 34.4888C82.2639 34.6635 82.5536 34.7475 82.8418 34.7475Z" fill="#929495"/>
<path d="M74.1176 20.0666C73.7002 20.0827 73.2691 20.0842 72.8456 20.072C72.0414 20.0521 71.3595 20.6854 71.3366 21.4941C71.3129 22.3028 71.9512 22.9773 72.7615 23.0009C72.974 23.007 73.1873 23.0101 73.4013 23.0101C73.6788 23.0101 73.9571 23.0047 74.2292 22.994C75.0395 22.9635 75.6709 22.283 75.6396 21.475C75.609 20.6663 74.9294 20.0376 74.1176 20.0666Z" fill="#929495"/>
<path d="M77.9504 82.6526C78.02 81.847 77.4222 81.1367 76.6149 81.0672C76.1456 81.026 75.667 80.994 75.1916 80.9719C74.3836 80.9337 73.6948 81.5563 73.655 82.3642C73.6161 83.1722 74.2414 83.8588 75.0509 83.8977C75.4889 83.9191 75.9292 83.9489 76.3611 83.9862C76.404 83.9901 76.4468 83.9916 76.4896 83.9916C77.2425 83.9908 77.8839 83.4156 77.9504 82.6526Z" fill="#929495"/>
<path d="M63.1091 17.0108C62.7567 16.7796 62.4074 16.5332 62.0725 16.2791C61.4266 15.7893 60.5062 15.9152 60.0155 16.5599C59.5255 17.2038 59.6516 18.1231 60.2968 18.6122C60.6843 18.9067 61.088 19.1913 61.4962 19.4591C61.7446 19.6223 62.0244 19.7001 62.3011 19.7001C62.7789 19.7001 63.2467 19.4682 63.5288 19.0402C63.9744 18.3642 63.7864 17.4556 63.1091 17.0108Z" fill="#929495"/>
<path d="M63.6911 82.2415C63.2348 82.3666 62.7746 82.5024 62.3236 82.6451C61.5507 82.89 61.1226 83.7132 61.368 84.4846C61.566 85.1087 62.1439 85.5069 62.7669 85.5069C62.9137 85.5069 63.0635 85.4848 63.2111 85.4382C63.6262 85.3063 64.0496 85.1819 64.4701 85.0659C65.2513 84.8515 65.7108 84.0451 65.496 83.2654C65.2811 82.4849 64.4739 82.0271 63.6911 82.2415Z" fill="#929495"/>
<path d="M70.1007 81.0786C69.629 81.1213 69.1513 81.174 68.6819 81.235C67.8785 81.3395 67.312 82.075 67.4168 82.8776C67.5131 83.6154 68.1445 84.1525 68.87 84.1525C68.9334 84.1525 68.9976 84.1487 69.0618 84.1403C69.4937 84.0846 69.9325 84.0358 70.3667 83.9961C71.174 83.9229 71.7687 83.2103 71.6953 82.4046C71.6219 81.5989 70.9079 81.0008 70.1007 81.0786Z" fill="#929495"/>
<path d="M68.3706 19.3967C67.9669 19.2853 67.5595 19.1571 67.1612 19.0168C66.3976 18.7474 65.5582 19.148 65.2891 19.9109C65.0193 20.6739 65.4206 21.5108 66.1851 21.7801C66.646 21.9419 67.1184 22.0906 67.587 22.2203C67.7177 22.2562 67.85 22.2738 67.9792 22.2738C68.6228 22.2738 69.213 21.8488 69.3934 21.1995C69.6097 20.4198 69.1526 19.6134 68.3706 19.3967Z" fill="#929495"/>
<path d="M81.01 36.1708C80.2861 35.8092 79.4032 36.1021 79.0409 36.8254C78.8284 37.2496 78.6212 37.6822 78.427 38.1117C78.0922 38.8487 78.4209 39.7169 79.1586 40.0504C79.355 40.1389 79.5607 40.1808 79.7633 40.1808C80.3221 40.1808 80.8556 39.8604 81.101 39.3195C81.2799 38.9243 81.4702 38.5268 81.6659 38.1369C82.029 37.4136 81.7355 36.5332 81.01 36.1708Z" fill="#929495"/>
<path d="M85.0198 80.8611C85.5641 80.8611 86.0862 80.5582 86.3408 80.0371C86.5441 79.6213 86.7459 79.1933 86.9408 78.7646C87.2764 78.0276 86.9492 77.1593 86.2116 76.8244C85.4731 76.4902 84.6032 76.816 84.2684 77.5522C84.0842 77.9574 83.893 78.361 83.7012 78.7539C83.3465 79.481 83.6492 80.3576 84.3777 80.7123C84.5856 80.813 84.8042 80.8611 85.0198 80.8611Z" fill="#929495"/>
<path d="M43.317 87.9725C43.6985 88.1792 44.083 88.3974 44.4591 88.6202C44.6938 88.7591 44.9522 88.8254 45.2075 88.8254C45.7082 88.8254 46.1959 88.5699 46.4703 88.1091C46.8847 87.4133 46.6553 86.5145 45.9582 86.101C45.55 85.8592 45.1326 85.6226 44.7183 85.3976C44.0058 85.0115 43.1152 85.2747 42.7277 85.9858C42.3416 86.6969 42.6046 87.5864 43.317 87.9725Z" fill="#929495"/>
<path d="M45.5271 9.89904C44.8184 9.50841 43.9248 9.76552 43.5334 10.4735C43.3293 10.842 43.1107 11.2082 42.8829 11.5607C42.4433 12.2413 42.6398 13.1476 43.3217 13.5856C43.5671 13.7443 43.843 13.819 44.1152 13.819C44.5975 13.819 45.0699 13.5825 45.3505 13.1476C45.6142 12.7395 45.8672 12.316 46.1034 11.8896C46.4948 11.1815 46.2372 10.2904 45.5271 9.89904Z" fill="#929495"/>
<path d="M83.0307 82.2031C82.5721 82.0788 82.1065 81.9628 81.6463 81.8567C80.8567 81.6752 80.0685 82.168 79.8874 82.9561C79.7054 83.745 80.1985 84.5308 80.9889 84.7124C81.4116 84.8093 81.8405 84.9161 82.2625 85.0305C82.3909 85.0656 82.5201 85.0817 82.6477 85.0817C83.2937 85.0817 83.8853 84.6529 84.0627 84.0006C84.2752 83.2193 83.8127 82.4144 83.0307 82.2031Z" fill="#929495"/>
<path d="M48.8095 6.16958C48.334 6.18331 47.8547 6.20696 47.3838 6.23977C46.575 6.2947 45.965 6.99432 46.0201 7.80151C46.0736 8.57437 46.718 9.16565 47.4832 9.16565C47.5168 9.16565 47.5512 9.16489 47.5856 9.1626C48.0183 9.13284 48.4593 9.11072 48.8966 9.09775C49.7069 9.0741 50.3437 8.39889 50.32 7.59018C50.2963 6.78146 49.6175 6.15127 48.8095 6.16958Z" fill="#929495"/>
<path d="M50.8365 88.6639C50.6446 88.8126 50.5009 88.9988 50.4053 89.204C50.319 89.1338 50.2326 89.0636 50.1454 88.995C49.5133 88.4892 48.5891 88.5914 48.0822 89.2231C47.5762 89.8548 47.6786 90.7765 48.3116 91.2823C48.6517 91.5547 48.9911 91.8362 49.3199 92.1208C49.5973 92.3603 49.9398 92.4786 50.2807 92.4786C50.6912 92.4786 51.1002 92.3069 51.3899 91.9727C51.5665 91.7698 51.6766 91.5325 51.7232 91.2861H51.737C52.0519 91.2861 52.3684 91.1862 52.6367 90.9786C52.9807 90.7116 53.3347 90.4484 53.6893 90.1951C54.3483 89.7244 54.4996 88.8088 54.028 88.1512C53.5556 87.4935 52.639 87.3425 51.9793 87.8132C51.5956 88.0878 51.2111 88.3747 50.8365 88.6639Z" fill="#929495"/>
<path d="M84.1317 72.2947C83.6708 71.6294 82.7565 71.4639 82.0899 71.9239C81.4233 72.384 81.2567 73.2965 81.7177 73.9618C81.986 74.3486 82.2665 74.7369 82.5524 75.1169C82.8406 75.4999 83.2809 75.702 83.7266 75.702C84.0339 75.702 84.3427 75.6067 84.6072 75.4083C85.2554 74.9223 85.3861 74.0045 84.8992 73.3575C84.6362 73.0081 84.3779 72.651 84.1317 72.2947Z" fill="#929495"/>
<path d="M77.0348 58.4726C77.8405 58.3826 78.4215 57.6586 78.3313 56.8544C78.2831 56.4226 78.2433 55.9839 78.212 55.549C78.1539 54.7426 77.4529 54.1353 76.6426 54.1933C75.8338 54.2513 75.2253 54.9532 75.2842 55.7596C75.3178 56.2319 75.3614 56.7095 75.4142 57.1787C75.4975 57.9279 76.1327 58.4818 76.8712 58.4818C76.9247 58.4818 76.9797 58.4787 77.0348 58.4726Z" fill="#929495"/>
<path d="M76.7123 63.5507C76.9019 64.187 77.4859 64.5982 78.1189 64.5982C78.2572 64.5982 78.3979 64.5784 78.5378 64.5372C79.3152 64.3068 79.7571 63.4905 79.5262 62.7153C79.4024 62.2995 79.2846 61.8738 79.1761 61.4519C78.975 60.6684 78.1762 60.1946 77.3904 60.3968C76.6045 60.5966 76.1313 61.3954 76.3324 62.179C76.4493 62.6367 76.5778 63.0983 76.7123 63.5507Z" fill="#929495"/>
<path d="M81.1696 67.0933C80.8332 66.3571 79.9618 66.0328 79.2249 66.3693C78.4872 66.705 78.1623 67.5739 78.4994 68.3102C78.6951 68.7382 78.903 69.17 79.1163 69.5935C79.3739 70.1046 79.8914 70.3999 80.4281 70.3999C80.6505 70.3999 80.8753 70.3488 81.087 70.2427C81.8109 69.8788 82.1022 68.9984 81.7383 68.2759C81.5411 67.8852 81.35 67.4877 81.1696 67.0933Z" fill="#929495"/>
</g>
<defs>
<clipPath id="clip0">
<rect width="100" height="100" fill="white"/>
</clipPath>
</defs>
</svg>
