<svg width="115" height="37" viewBox="0 0 115 37" fill="none" xmlns="http://www.w3.org/2000/svg">
<g clip-path="url(#clip0)">
<path d="M0.402832 0.703857H18.8061V1.81143H10.4849V21.1594H8.72399V1.81143H0.402832V0.703857Z" fill="white"/>
<path d="M0.402832 0.703857H18.8061V1.81143H10.4849V21.1594H8.72399V1.81143H0.402832V0.703857Z" stroke="white" stroke-width="0.71" stroke-miterlimit="22.93"/>
<path d="M21.5684 21.1594V7.13011C21.5749 6.8176 21.5979 6.50565 21.6374 6.19559C21.688 5.72897 21.8002 5.27116 21.9712 4.83419C22.1776 4.28779 22.4563 3.77168 22.7998 3.29974C23.2302 2.72694 23.7653 2.24143 24.3766 1.86912C25.1557 1.39508 26.0015 1.04116 26.8856 0.819227C28.101 0.516692 29.3511 0.377028 30.6031 0.403886C31.8361 0.392077 33.0657 0.535491 34.263 0.830764C35.2154 1.07179 36.1242 1.4611 36.9562 1.98449C37.6358 2.41284 38.207 2.99338 38.625 3.68047C39.0103 4.30839 39.2136 5.03149 39.212 5.76871C39.2328 6.9083 38.8215 8.01336 38.0611 8.8607C37.0799 9.86475 35.814 10.5415 34.4357 10.799C35.5511 10.8901 36.6322 11.229 37.6007 11.7912C38.2568 12.1901 38.7966 12.7552 39.1659 13.4295C39.4676 13.9967 39.6443 14.6223 39.6838 15.2639C39.6838 15.8869 39.7529 16.4176 39.7529 16.8099V19.8442C39.7481 20.1036 39.791 20.3618 39.8795 20.6056C39.9639 20.8364 40.033 21.021 40.0867 21.1594H38.2567C38.2567 20.9402 38.1301 20.6864 38.0611 20.398C37.9837 20.143 37.9373 19.8796 37.9229 19.6134V16.1522C37.9139 15.6561 37.86 15.1618 37.7618 14.6755C37.6288 14.0875 37.329 13.5506 36.8986 13.1295C36.3075 12.5665 35.5945 12.1479 34.8155 11.9065C33.5768 11.5836 32.2949 11.459 31.0174 11.5373H24.9981V10.3836H29.7629C30.7437 10.3927 31.723 10.3038 32.6863 10.1183C33.5299 9.97204 34.3479 9.70389 35.1147 9.32219C35.7712 8.99224 36.3395 8.50963 36.772 7.91464C37.18 7.32661 37.3897 6.62319 37.3705 5.90716C37.3829 5.25085 37.1941 4.60653 36.8296 4.0612C36.4453 3.49328 35.9377 3.01996 35.3449 2.67673C34.6523 2.26892 33.8982 1.97668 33.1121 1.81143C32.178 1.61026 31.2246 1.51353 30.2693 1.523C29.2865 1.4996 28.3056 1.62009 27.3575 1.88065C26.659 2.07811 25.9979 2.38997 25.4009 2.80364C24.9438 3.13029 24.5532 3.54146 24.25 4.01505C23.9886 4.41573 23.7833 4.85052 23.64 5.30722C23.5249 5.68308 23.4478 6.06961 23.4098 6.46095C23.4098 6.79553 23.4098 7.02627 23.4098 7.16472V21.1594H21.5684Z" fill="white"/>
<path d="M21.5684 21.1594V7.13011C21.5749 6.8176 21.5979 6.50565 21.6374 6.19559C21.688 5.72897 21.8002 5.27116 21.9712 4.83419C22.1776 4.28779 22.4563 3.77168 22.7998 3.29974C23.2302 2.72694 23.7653 2.24143 24.3766 1.86912C25.1557 1.39508 26.0015 1.04116 26.8856 0.819227C28.101 0.516692 29.3511 0.377028 30.6031 0.403886C31.8361 0.392077 33.0657 0.535491 34.263 0.830764C35.2154 1.07179 36.1242 1.4611 36.9562 1.98449C37.6358 2.41284 38.207 2.99338 38.625 3.68047C39.0103 4.30839 39.2136 5.03149 39.212 5.76871C39.2328 6.9083 38.8215 8.01336 38.0611 8.8607C37.0799 9.86475 35.814 10.5415 34.4357 10.799C35.5511 10.8901 36.6322 11.229 37.6007 11.7912C38.2568 12.1901 38.7966 12.7552 39.1659 13.4295C39.4676 13.9967 39.6443 14.6223 39.6838 15.2639C39.6838 15.8869 39.7529 16.4176 39.7529 16.8099V19.8442C39.7481 20.1036 39.791 20.3618 39.8795 20.6056C39.9639 20.8364 40.033 21.021 40.0867 21.1594H38.2567C38.2567 20.9402 38.1301 20.6864 38.0611 20.398C37.9837 20.143 37.9373 19.8796 37.9229 19.6134V16.1522C37.9139 15.6561 37.86 15.1618 37.7618 14.6755C37.6288 14.0875 37.329 13.5506 36.8986 13.1295C36.3075 12.5665 35.5945 12.1479 34.8155 11.9065C33.5768 11.5836 32.2949 11.459 31.0174 11.5373H24.9981V10.3836H29.7629C30.7437 10.3927 31.723 10.3038 32.6863 10.1183C33.5299 9.97204 34.3479 9.70389 35.1147 9.32219C35.7712 8.99224 36.3395 8.50963 36.772 7.91464C37.18 7.32661 37.3897 6.62319 37.3705 5.90716C37.3829 5.25085 37.1941 4.60653 36.8296 4.0612C36.4453 3.49328 35.9377 3.01996 35.3449 2.67673C34.6523 2.26892 33.8982 1.97668 33.1121 1.81143C32.178 1.61026 31.2246 1.51353 30.2693 1.523C29.2865 1.4996 28.3056 1.62009 27.3575 1.88065C26.659 2.07811 25.9979 2.38997 25.4009 2.80364C24.9438 3.13029 24.5532 3.54146 24.25 4.01505C23.9886 4.41573 23.7833 4.85052 23.64 5.30722C23.5249 5.68308 23.4478 6.06961 23.4098 6.46095C23.4098 6.79553 23.4098 7.02627 23.4098 7.16472V21.1594H21.5684Z" stroke="white" stroke-width="0.71" stroke-miterlimit="22.93"/>
<path d="M46.8195 0.703857H45.0586V21.1594H46.8195V0.703857Z" fill="white"/>
<path d="M46.8195 0.703857H45.0586V21.1594H46.8195V0.703857Z" stroke="white" stroke-width="0.71" stroke-miterlimit="22.93"/>
<path d="M52.1714 7.30309C52.1766 6.82108 52.2074 6.33968 52.2635 5.86093C52.3255 5.29976 52.4935 4.75553 52.7584 4.25725C53.0888 3.65963 53.5212 3.12467 54.0359 2.67665C54.7169 2.08142 55.4957 1.60909 56.3377 1.28064C57.1426 0.950183 57.9854 0.721524 58.8467 0.599942C59.7464 0.471107 60.654 0.405569 61.5629 0.403809C62.3559 0.404351 63.148 0.458312 63.9338 0.56533C64.679 0.672325 65.4115 0.853985 66.1205 1.10758C66.6074 1.28403 67.0773 1.50412 67.5247 1.7652C67.9715 2.02088 68.3851 2.33088 68.7561 2.68819C69.1216 3.03548 69.4218 3.44581 69.6424 3.8996C69.8675 4.37935 69.9816 4.90389 69.9761 5.43405C69.9773 6.16144 69.7909 6.87678 69.4352 7.51076C69.0176 8.23165 68.4131 8.8257 67.6858 9.22981C66.9636 9.64296 66.1894 9.95726 65.384 10.1643C65.6372 10.1643 65.9594 10.2566 66.3392 10.3374C66.7758 10.43 67.2033 10.5613 67.6167 10.7297C68.1049 10.9481 68.5679 11.2189 68.9978 11.5373C69.4774 11.8575 69.9077 12.2462 70.2754 12.691C70.6265 13.1105 70.8889 13.5973 71.0465 14.1216C71.2015 14.6142 71.2791 15.128 71.2767 15.6445C71.2803 16.5419 71.0025 17.4177 70.4825 18.1481C70.011 18.8309 69.3887 19.3955 68.6641 19.7979C67.9741 20.1937 67.2349 20.4963 66.4658 20.6979C65.7537 20.8861 65.0254 21.0059 64.2906 21.0555C63.6 21.1132 63.0015 21.1363 62.4951 21.1363H55.5896V19.9825H61.5284C62.0923 19.9825 62.6793 19.9825 63.3468 19.9825C63.9934 19.9514 64.6363 19.8665 65.2689 19.7287C65.8962 19.5948 66.5063 19.3896 67.0873 19.1172C67.6665 18.8453 68.1807 18.4519 68.595 17.9635C68.8957 17.6301 69.1232 17.237 69.2626 16.8098C69.4001 16.4089 69.4701 15.9878 69.4697 15.5638C69.4703 15.1171 69.4004 14.6732 69.2626 14.2485C69.115 13.7908 68.8717 13.37 68.549 13.014C68.1461 12.5422 67.658 12.1508 67.1103 11.8603C66.5784 11.5864 66.019 11.3698 65.4415 11.2142C64.8783 11.0733 64.3049 10.9769 63.7266 10.9258C63.1512 10.9258 62.6448 10.8566 62.1959 10.8566H55.6011V9.70284H59.871H61.5859C62.2306 9.67871 62.8729 9.60931 63.508 9.49517C64.1499 9.37804 64.7784 9.19637 65.384 8.95292C65.9856 8.72174 66.5396 8.38148 67.0183 7.94918C67.3825 7.63194 67.6665 7.23258 67.8469 6.78391C67.9958 6.34936 68.0735 5.89351 68.0771 5.43405C68.0771 3.81884 67.0068 2.66511 64.8545 1.97288C64.3295 1.8068 63.79 1.69091 63.2432 1.62676C62.6665 1.55734 62.0862 1.52267 61.5053 1.52292C60.7933 1.52186 60.082 1.56811 59.3761 1.66137C58.7008 1.75607 58.0397 1.93434 57.4081 2.19208C56.7272 2.44481 56.096 2.81583 55.5436 3.28812C55.1046 3.65689 54.7411 4.10746 54.4732 4.61491C54.2602 5.05227 54.1128 5.51881 54.0359 5.99938C53.9697 6.43472 53.9351 6.87428 53.9323 7.31463V21.1593H52.1714V7.30309Z" fill="white"/>
<path d="M52.1714 7.30309C52.1766 6.82108 52.2074 6.33968 52.2635 5.86093C52.3255 5.29976 52.4935 4.75553 52.7584 4.25725C53.0888 3.65963 53.5212 3.12467 54.0359 2.67665C54.7169 2.08142 55.4957 1.60909 56.3377 1.28064C57.1426 0.950183 57.9854 0.721524 58.8467 0.599942C59.7464 0.471107 60.654 0.405569 61.5629 0.403809C62.3559 0.404351 63.148 0.458312 63.9338 0.56533C64.679 0.672325 65.4115 0.853985 66.1205 1.10758C66.6074 1.28403 67.0773 1.50412 67.5247 1.7652C67.9715 2.02088 68.3851 2.33088 68.7561 2.68819C69.1216 3.03548 69.4218 3.44581 69.6424 3.8996C69.8675 4.37935 69.9816 4.9039 69.9761 5.43405C69.9773 6.16144 69.7909 6.87678 69.4352 7.51076C69.0176 8.23165 68.4131 8.8257 67.6858 9.22981C66.9636 9.64296 66.1894 9.95726 65.384 10.1643C65.6372 10.1643 65.9594 10.2566 66.3392 10.3374C66.7758 10.43 67.2033 10.5613 67.6167 10.7297C68.1049 10.9481 68.5679 11.2189 68.9978 11.5373C69.4774 11.8575 69.9077 12.2462 70.2754 12.691C70.6265 13.1105 70.8889 13.5973 71.0465 14.1216C71.2015 14.6142 71.2791 15.128 71.2767 15.6445C71.2803 16.5419 71.0025 17.4177 70.4825 18.1481C70.011 18.8309 69.3887 19.3955 68.6641 19.7979C67.9741 20.1937 67.2349 20.4963 66.4658 20.6979C65.7537 20.8861 65.0254 21.0059 64.2906 21.0555C63.6 21.1132 63.0015 21.1363 62.4951 21.1363H55.5896V19.9825H61.5284C62.0923 19.9825 62.6793 19.9825 63.3468 19.9825C63.9934 19.9514 64.6363 19.8665 65.2689 19.7287C65.8962 19.5948 66.5063 19.3896 67.0873 19.1172C67.6665 18.8453 68.1807 18.4519 68.595 17.9635C68.8957 17.6301 69.1232 17.237 69.2626 16.8098C69.4001 16.4089 69.4701 15.9878 69.4697 15.5638C69.4703 15.1171 69.4004 14.6732 69.2626 14.2485C69.115 13.7908 68.8717 13.37 68.549 13.014C68.1461 12.5422 67.658 12.1508 67.1103 11.8603C66.5784 11.5864 66.019 11.3698 65.4415 11.2142C64.8783 11.0733 64.3049 10.9769 63.7266 10.9258C63.1512 10.9258 62.6448 10.8566 62.1959 10.8566H55.6011V9.70284H59.871H61.5859C62.2306 9.67871 62.8729 9.60931 63.508 9.49517C64.1499 9.37804 64.7784 9.19637 65.384 8.95292C65.9856 8.72174 66.5396 8.38148 67.0183 7.94918C67.3825 7.63194 67.6665 7.23258 67.8469 6.78391C67.9958 6.34936 68.0735 5.89351 68.0771 5.43405C68.0771 3.81884 67.0068 2.66511 64.8545 1.97288C64.3295 1.8068 63.79 1.69091 63.2432 1.62676C62.6665 1.55734 62.0862 1.52267 61.5053 1.52292C60.7933 1.52186 60.082 1.56811 59.3761 1.66137C58.7008 1.75607 58.0397 1.93434 57.4081 2.19208C56.7272 2.44481 56.096 2.81583 55.5436 3.28812C55.1046 3.65689 54.7411 4.10746 54.4732 4.61491C54.2602 5.05227 54.1128 5.51881 54.0359 5.99938C53.9697 6.43472 53.9351 6.87428 53.9323 7.31463V21.1593H52.1714V7.30309Z" stroke="white" stroke-width="0.71" stroke-miterlimit="22.93"/>
<path d="M75.4199 8.94146C75.4199 8.34152 75.4429 7.69544 75.489 7.0032C75.5317 6.29474 75.6992 5.59946 75.9839 4.94957C76.3178 4.22755 76.7777 3.57114 77.342 3.01131C78.1211 2.28717 79.0314 1.71931 80.0236 1.33841C80.8655 1.00405 81.7417 0.764154 82.6362 0.623097C84.5431 0.328434 86.4839 0.328434 88.3908 0.623097C89.285 0.765613 90.1611 1.00547 91.0034 1.33841C91.9922 1.71933 92.8987 2.28727 93.6735 3.01131C94.2413 3.56815 94.7017 4.22524 95.0316 4.94957C95.296 5.60323 95.444 6.29829 95.469 7.0032C95.469 7.69544 95.469 8.34152 95.469 8.94146V21.1594H93.8231V11.1912H78.8612V10.0375H93.8231V8.88378C93.8231 8.22615 93.8231 7.58007 93.7311 6.94552C93.6826 6.32469 93.5309 5.71635 93.2822 5.1457C93.0015 4.54734 92.6111 4.00724 92.1313 3.55356C91.4908 3.011 90.7578 2.58888 89.9676 2.30754C89.2844 2.02518 88.5694 1.82758 87.8384 1.71914C87.0765 1.60376 86.307 1.54591 85.5365 1.54608C84.766 1.54689 83.9967 1.60474 83.2347 1.71914C82.504 1.82892 81.7891 2.02647 81.1055 2.30754C80.3136 2.60988 79.5841 3.05572 78.9532 3.62279C78.4649 4.06886 78.0731 4.61078 77.8023 5.21493C77.5499 5.78899 77.3943 6.4011 77.342 7.02628C77.2844 7.66083 77.2614 8.30691 77.2614 8.96454V21.1594H75.4199V8.94146Z" fill="white"/>
<path d="M75.4199 8.94146C75.4199 8.34152 75.4429 7.69544 75.489 7.0032C75.5317 6.29474 75.6992 5.59946 75.9839 4.94957C76.3178 4.22755 76.7777 3.57114 77.342 3.01131C78.1211 2.28717 79.0314 1.71931 80.0236 1.33841C80.8655 1.00405 81.7417 0.764154 82.6362 0.623097C84.5431 0.328434 86.4839 0.328434 88.3908 0.623097C89.285 0.765613 90.1611 1.00547 91.0034 1.33841C91.9922 1.71933 92.8987 2.28727 93.6735 3.01131C94.2413 3.56815 94.7017 4.22524 95.0316 4.94957C95.296 5.60323 95.444 6.29829 95.469 7.0032C95.469 7.69544 95.469 8.34152 95.469 8.94146V21.1594H93.8231V11.1912H78.8612V10.0375H93.8231V8.88378C93.8231 8.22615 93.8231 7.58007 93.7311 6.94552C93.6826 6.32469 93.5309 5.71635 93.2822 5.1457C93.0015 4.54734 92.6111 4.00724 92.1313 3.55356C91.4908 3.011 90.7578 2.58888 89.9676 2.30754C89.2844 2.02518 88.5694 1.82758 87.8384 1.71914C87.0765 1.60376 86.307 1.54591 85.5365 1.54608C84.766 1.54689 83.9967 1.60474 83.2347 1.71914C82.504 1.82892 81.7891 2.02647 81.1055 2.30754C80.3136 2.60988 79.5841 3.05572 78.9532 3.62278C78.4649 4.06886 78.0731 4.61078 77.8023 5.21493C77.5499 5.78899 77.3943 6.4011 77.342 7.02628C77.2844 7.66083 77.2614 8.30691 77.2614 8.96454V21.1594H75.4199V8.94146Z" stroke="white" stroke-width="0.71" stroke-miterlimit="22.93"/>
<path d="M109.786 21.1594C108.589 21.1764 107.392 21.0642 106.219 20.8248C105.359 20.6434 104.527 20.3486 103.744 19.948C103.158 19.6361 102.635 19.2175 102.202 18.7135C101.85 18.2976 101.563 17.8308 101.35 17.3291C101.159 16.8933 101.039 16.4299 100.993 15.9561C100.993 15.5062 100.924 15.1139 100.924 14.8024V0.703857H102.685V14.2025C102.685 14.8553 102.735 15.5071 102.835 16.1523C102.934 16.8502 103.221 17.5081 103.664 18.0559C104.248 18.7107 104.994 19.2 105.827 19.475C107.116 19.9118 108.473 20.1073 109.832 20.0518H114.643V21.2056L109.786 21.1594Z" fill="white"/>
<path d="M109.786 21.1594C108.589 21.1764 107.392 21.0642 106.219 20.8248C105.359 20.6434 104.527 20.3486 103.744 19.948C103.158 19.6361 102.635 19.2175 102.202 18.7135C101.85 18.2976 101.563 17.8308 101.35 17.3291C101.159 16.8933 101.039 16.4299 100.993 15.9561C100.993 15.5062 100.924 15.1139 100.924 14.8024V0.703857H102.685V14.2025C102.685 14.8553 102.735 15.5071 102.835 16.1523C102.934 16.8502 103.221 17.5081 103.664 18.0559C104.248 18.7107 104.994 19.2 105.827 19.475C107.116 19.9118 108.473 20.1073 109.832 20.0518H114.643V21.2056L109.786 21.1594Z" stroke="white" stroke-width="0.71" stroke-miterlimit="22.93"/>
<path d="M104.365 27.6895V31.3238C104.365 31.4045 104.365 31.5084 104.365 31.6353C104.365 31.7622 104.365 31.9006 104.365 32.0391C104.386 32.1757 104.417 32.3107 104.458 32.4429C104.497 32.579 104.551 32.7105 104.619 32.8351C104.792 33.1189 105.038 33.3502 105.332 33.5043C105.669 33.682 106.045 33.7732 106.426 33.7697C106.826 33.7864 107.224 33.6947 107.577 33.5043C107.877 33.3486 108.125 33.1079 108.29 32.8121C108.351 32.6882 108.405 32.5611 108.451 32.4313C108.489 32.3031 108.516 32.1719 108.532 32.0391C108.532 31.9006 108.532 31.7737 108.532 31.6468C108.532 31.5199 108.532 31.4161 108.532 31.3238V27.6895H109.061V31.3814C109.079 31.8758 108.989 32.368 108.797 32.8236C108.641 33.1455 108.422 33.4321 108.152 33.6658C107.919 33.8607 107.649 34.006 107.358 34.0927C107.138 34.152 106.915 34.1983 106.69 34.2311V37.0462H106.161V34.185C105.819 34.1709 105.484 34.0926 105.171 33.9543C104.923 33.8361 104.697 33.6761 104.504 33.4812C104.338 33.309 104.201 33.1101 104.101 32.8928C104.006 32.6935 103.933 32.4847 103.882 32.2698C103.842 32.0875 103.815 31.9024 103.802 31.716C103.802 31.5545 103.802 31.4276 103.802 31.3353V27.6895H104.365ZM100.844 27.6895H103.146V28.1856H100.844V31.9468C100.833 32.1504 100.833 32.3546 100.844 32.5582C100.858 32.7679 100.925 32.9704 101.039 33.1466C101.156 33.3478 101.346 33.4964 101.569 33.562C101.78 33.609 101.997 33.6323 102.213 33.6312H103.157V34.1273H102.213C101.849 34.1432 101.486 34.072 101.154 33.9196C100.923 33.7972 100.725 33.6188 100.579 33.4005C100.451 33.1892 100.369 32.9534 100.337 32.7082C100.321 32.4662 100.321 32.2234 100.337 31.9814V25.8897H100.867L100.844 27.6895ZM97.7707 25.832C97.7643 25.7222 97.8015 25.6144 97.8743 25.5321C97.9639 25.4647 98.073 25.4282 98.185 25.4282C98.2971 25.4282 98.4061 25.4647 98.4958 25.5321C98.5686 25.6144 98.6058 25.7222 98.5994 25.832C98.6046 25.9416 98.5675 26.0491 98.4958 26.132C98.4061 26.1994 98.2971 26.2358 98.185 26.2358C98.073 26.2358 97.9639 26.1994 97.8743 26.132C97.8026 26.0491 97.7655 25.9416 97.7707 25.832ZM98.4498 27.6434V34.0812H97.9203V27.6895L98.4498 27.6434ZM95.6991 24.586V34.0812H95.1811V24.586H95.6991ZM92.534 34.0812V31.2199C92.5429 30.7294 92.4649 30.2411 92.3038 29.7778C92.1634 29.4034 91.948 29.0618 91.6708 28.774C91.4231 28.5138 91.1203 28.3127 90.7846 28.1856C90.4455 28.061 90.0869 27.9985 89.7258 28.001C89.3105 27.9965 88.8989 28.079 88.5173 28.2433C88.1621 28.3972 87.8412 28.6208 87.5736 28.9009C87.3166 29.1758 87.1135 29.4968 86.9751 29.847C86.8197 30.2111 86.7451 30.6048 86.7564 31.0007C86.7502 31.3962 86.8247 31.7888 86.9751 32.1544C87.1201 32.4863 87.3316 32.7848 87.5966 33.0313C87.888 33.2354 88.2164 33.3804 88.5633 33.4582C88.9293 33.6048 89.3201 33.6792 89.7143 33.6774C90.1104 33.6762 90.5021 33.5938 90.8652 33.4351C91.251 33.2606 91.605 33.0228 91.9125 32.7313V33.3197C91.629 33.5708 91.3063 33.7735 90.9573 33.9196C90.5568 34.0882 90.1255 34.1707 89.6913 34.1619C89.2484 34.1643 88.8084 34.0901 88.3907 33.9427C87.9711 33.7992 87.5811 33.5803 87.2398 33.2966C86.9109 33.0095 86.6411 32.6607 86.4457 32.2698C86.2829 31.8477 86.2199 31.3936 86.2615 30.943C86.2648 30.5163 86.3467 30.0939 86.5032 29.697C86.6663 29.2733 86.9041 28.8825 87.2053 28.5433C87.6901 28.051 88.3047 27.7071 88.9772 27.5518C89.6498 27.3965 90.3525 27.4363 91.0033 27.6664C91.398 27.8041 91.7589 28.0243 92.0621 28.3125C92.3913 28.6388 92.6464 29.0323 92.8102 29.4663C93.0154 29.9793 93.1133 30.529 93.098 31.0815V34.0581L92.534 34.0812ZM80.1731 27.6895V31.3353C80.1669 31.7795 80.241 32.2212 80.3918 32.639C80.4739 32.8461 80.5966 33.0346 80.7529 33.1931C80.9091 33.3517 81.0955 33.4771 81.301 33.562C81.4546 33.6364 81.6171 33.6906 81.7844 33.7235C81.9499 33.7655 82.1202 33.7849 82.2908 33.7812C82.4577 33.7848 82.6242 33.7654 82.7857 33.7235C82.954 33.6943 83.117 33.6398 83.2691 33.562C83.4761 33.4795 83.6637 33.3549 83.8202 33.196C83.9767 33.0372 84.0987 32.8475 84.1783 32.639C84.3291 32.2212 84.4032 31.7795 84.397 31.3353V27.6895H84.9264V31.3814C84.9264 31.6468 84.9264 31.9006 84.9264 32.1429C84.8926 32.3828 84.8228 32.6162 84.7193 32.8351C84.6138 33.0656 84.4697 33.2763 84.2934 33.4582C84.0743 33.6692 83.8263 33.8479 83.5568 33.9889C83.3837 34.0787 83.2026 34.152 83.0159 34.2081C82.8338 34.2677 82.6436 34.2988 82.452 34.3004C82.2231 34.3027 81.9949 34.2756 81.7729 34.2196C81.5418 34.1706 81.3176 34.0931 81.1054 33.9889C80.8347 33.8452 80.5865 33.6625 80.3688 33.4466C80.1925 33.2648 80.0485 33.0541 79.943 32.8236C79.8378 32.6061 79.7716 32.3718 79.7473 32.1314C79.7288 31.8817 79.7288 31.6311 79.7473 31.3814V27.6895H80.1731ZM73.9006 33.7697C74.5033 33.6955 75.0837 33.495 75.604 33.1813C76.5041 32.6415 77.1788 31.793 77.503 30.793C77.6509 30.3423 77.7285 29.8715 77.7332 29.397C77.7372 28.8112 77.6237 28.2305 77.3994 27.6895C77.1874 27.1644 76.8745 26.6862 76.4787 26.282C76.0866 25.8789 75.6219 25.5539 75.1091 25.3244C74.5638 25.0904 73.9759 24.9725 73.3827 24.9783C72.7957 24.972 72.2145 25.0941 71.6793 25.3359C70.6424 25.7765 69.817 26.6039 69.3775 27.6434C68.9864 28.6067 68.9497 29.6781 69.2739 30.6661C69.4169 31.1372 69.643 31.5788 69.9414 31.9698C70.6268 32.8743 71.6317 33.4812 72.7497 33.6658V34.1735C72.0994 34.0961 71.4723 33.884 70.9082 33.5505C70.3942 33.2496 69.9382 32.8588 69.5616 32.3967C69.2011 31.9551 68.9171 31.4559 68.7215 30.92C68.5405 30.4007 68.4471 29.8548 68.4452 29.3047C68.4421 28.6547 68.5713 28.0109 68.8251 27.4126C69.0813 26.8302 69.4399 26.2987 69.8839 25.8436C70.3348 25.3946 70.8657 25.0346 71.4492 24.7821C72.0577 24.5266 72.7115 24.3971 73.3712 24.4014C74.0361 24.3941 74.695 24.5278 75.3047 24.7937C75.8894 25.0502 76.4234 25.4097 76.8815 25.8551C77.3328 26.3042 77.6925 26.8371 77.9403 27.4242C78.2043 28.0155 78.3378 28.657 78.3317 29.3047C78.3287 29.8434 78.2353 30.3777 78.0554 30.8853C77.8749 31.4268 77.598 31.931 77.2383 32.3737C76.8422 32.8341 76.3714 33.2241 75.8457 33.5274C75.2456 33.8752 74.5787 34.0914 73.8891 34.1619V36.0886H73.3021V31.4968H73.8891L73.9006 33.7697ZM60.5384 28.001C60.1436 27.9908 59.7511 28.0655 59.3875 28.2202C59.0471 28.3567 58.7379 28.5607 58.4783 28.8202C58.2232 29.0834 58.0201 29.3927 57.8798 29.7316C57.5754 30.4705 57.5754 31.3002 57.8798 32.0391C58.0201 32.378 58.2232 32.6873 58.4783 32.9505C58.7379 33.2099 59.0471 33.414 59.3875 33.5505C59.7511 33.7052 60.1436 33.7799 60.5384 33.7697C60.9332 33.7789 61.3254 33.7042 61.6893 33.5505C62.0262 33.4138 62.3317 33.2096 62.5871 32.9505C62.8493 32.6907 63.0567 32.3808 63.197 32.0391C63.5014 31.3002 63.5014 30.4705 63.197 29.7316C63.0438 29.3952 62.8246 29.093 62.5525 28.8432C62.2971 28.5841 61.9917 28.38 61.6548 28.2433C61.3033 28.0864 60.9232 28.0039 60.5384 28.001ZM60.5384 27.5165C60.9896 27.5108 61.4368 27.6013 61.8505 27.7818C62.2507 27.9474 62.6144 28.1904 62.9208 28.4971C63.2313 28.7984 63.4779 29.1594 63.6459 29.5586C63.8218 29.9705 63.9119 30.4142 63.9106 30.8623C63.9106 31.3103 63.8206 31.7537 63.6459 32.166C63.4779 32.5651 63.2313 32.9261 62.9208 33.2274C62.6144 33.5341 62.2507 33.7772 61.8505 33.9427C61.4351 34.1179 60.989 34.2081 60.5384 34.2081C60.0878 34.2081 59.6417 34.1179 59.2264 33.9427C58.8239 33.7749 58.4569 33.5322 58.1445 33.2274C57.8414 32.9224 57.5992 32.5621 57.4309 32.166C57.2508 31.7554 57.1605 31.3108 57.1662 30.8623C57.1774 30.4093 57.2874 29.9643 57.4885 29.5586C57.6567 29.1624 57.8989 28.8022 58.2021 28.4971C58.5144 28.1924 58.8815 27.9497 59.2839 27.7818C59.6798 27.6091 60.1066 27.5188 60.5384 27.5165ZM54.4731 27.6895H56.7749V28.1856H54.4731V31.9468C54.4731 32.1429 54.4731 32.339 54.4731 32.5582C54.4912 32.7688 54.5625 32.9713 54.6802 33.1466C54.7973 33.3478 54.9867 33.4964 55.2097 33.562C55.4174 33.609 55.6297 33.6323 55.8427 33.6312H56.7864V34.1273H55.8427C55.4819 34.1445 55.1224 34.0732 54.7953 33.9196C54.5614 33.8002 54.3629 33.6211 54.2199 33.4005C54.0918 33.1892 54.0095 32.9534 53.9782 32.7082C53.9618 32.4662 53.9618 32.2234 53.9782 31.9814V25.8897H54.5076L54.4731 27.6895ZM43.758 30.4354C43.7408 30.1896 43.7408 29.9428 43.758 29.697C43.7918 29.4497 43.8616 29.2087 43.9652 28.9817C44.0709 28.7479 44.2148 28.5334 44.391 28.3471C44.6077 28.1363 44.8563 27.961 45.1276 27.828C45.3151 27.7281 45.517 27.658 45.7261 27.6203C45.9326 27.5975 46.141 27.5975 46.3476 27.6203C46.5579 27.597 46.7702 27.597 46.9806 27.6203C47.1887 27.6615 47.3901 27.7314 47.5791 27.828C47.8486 27.964 48.0968 28.1389 48.3156 28.3471C48.4918 28.5334 48.6357 28.7479 48.7415 28.9817C48.8466 29.2073 48.9127 29.4492 48.9371 29.697C48.9542 29.9428 48.9542 30.1896 48.9371 30.4354V34.1273H48.5113V30.4354C48.5137 29.9942 48.4357 29.5563 48.2811 29.1432C48.1991 28.9361 48.0763 28.7477 47.9201 28.5891C47.7639 28.4305 47.5774 28.3051 47.3719 28.2202C47.2183 28.1459 47.0559 28.0916 46.8885 28.0587C46.7201 28.0418 46.5505 28.0418 46.3821 28.0587C46.2176 28.0417 46.0517 28.0417 45.8872 28.0587C45.7189 28.088 45.556 28.1424 45.4038 28.2202C45.1969 28.3027 45.0092 28.4273 44.8527 28.5862C44.6962 28.7451 44.5743 28.9347 44.4946 29.1432C44.3439 29.557 44.2698 29.9949 44.2759 30.4354V34.0812H43.7465L43.758 30.4354ZM38.717 28.0472C38.3221 28.0369 37.9296 28.1117 37.566 28.2664C37.2272 28.4058 36.9185 28.6095 36.6568 28.8663C36.4017 29.1296 36.1987 29.4388 36.0583 29.7778C35.754 30.5167 35.754 31.3463 36.0583 32.0852C36.1987 32.4242 36.4017 32.7334 36.6568 32.9967C36.9185 33.2535 37.2272 33.4572 37.566 33.5966C38.2817 33.889 39.0831 33.889 39.7988 33.5966C40.1376 33.4572 40.4464 33.2535 40.7081 32.9967C40.9631 32.7334 41.1662 32.4242 41.3065 32.0852C41.6109 31.3463 41.6109 30.5167 41.3065 29.7778C41.1662 29.4388 40.9631 29.1296 40.7081 28.8663C40.4464 28.6095 40.1376 28.4058 39.7988 28.2664C39.4599 28.1052 39.0918 28.0149 38.717 28.001V28.0472ZM38.717 27.5626C39.1681 27.557 39.6153 27.6474 40.029 27.828C40.4314 27.9958 40.7985 28.2385 41.1109 28.5433C41.414 28.8483 41.6562 29.2086 41.8245 29.6047C42.0057 30.015 42.096 30.4598 42.0892 30.9084C42.0949 31.357 42.0046 31.8015 41.8245 32.2121C41.6562 32.6083 41.414 32.9685 41.1109 33.2736C40.7985 33.5783 40.4314 33.821 40.029 33.9889C39.6137 34.164 39.1676 34.2542 38.717 34.2542C38.2663 34.2542 37.8203 34.164 37.4049 33.9889C37.0047 33.8233 36.6409 33.5802 36.3346 33.2736C36.0241 32.9723 35.7775 32.6112 35.6095 32.2121C35.4348 31.7998 35.3447 31.3564 35.3448 30.9084C35.3407 30.444 35.4348 29.9839 35.621 29.5586C35.789 29.1594 36.0356 28.7984 36.3461 28.4971C36.6525 28.1904 37.0162 27.9474 37.4164 27.7818C37.8266 27.6029 38.2697 27.5125 38.717 27.5165V27.5626ZM33.1465 25.8782C33.1427 25.8228 33.151 25.7672 33.1709 25.7154C33.1908 25.6636 33.2218 25.6168 33.2616 25.5782C33.3437 25.5052 33.4513 25.4679 33.5608 25.4744C33.6169 25.4703 33.6732 25.4773 33.7266 25.4951C33.7799 25.513 33.8292 25.5412 33.8716 25.5782C33.9097 25.618 33.9395 25.6651 33.9593 25.7166C33.979 25.7681 33.9883 25.823 33.9867 25.8782C33.9876 25.9892 33.9464 26.0964 33.8716 26.1781C33.8292 26.2152 33.7799 26.2434 33.7266 26.2612C33.6732 26.279 33.6169 26.2861 33.5608 26.282C33.4513 26.2884 33.3437 26.2511 33.2616 26.1781C33.2159 26.1341 33.1815 26.0796 33.1615 26.0193C33.1414 25.959 33.1363 25.8947 33.1465 25.832V25.8782ZM33.8256 27.6895V34.1273H33.3191V27.6895H33.8256ZM26.7589 33.5851H29.9239C30.0751 33.5733 30.2251 33.5501 30.3728 33.5158C30.5237 33.4722 30.6702 33.4143 30.8101 33.3428C30.944 33.2706 31.0555 33.1628 31.1324 33.0313C31.1805 32.9571 31.2155 32.8751 31.236 32.789C31.2417 32.6968 31.2417 32.6043 31.236 32.5121C31.2425 32.24 31.1528 31.9744 30.9828 31.7622C30.8133 31.5822 30.6045 31.444 30.3728 31.3584C29.9639 31.1912 29.54 31.0637 29.1068 30.9776L28.5543 30.8623L28.0019 30.7007C27.8351 30.6456 27.6734 30.5761 27.5185 30.4931C27.3722 30.4158 27.2399 30.3144 27.1272 30.1931C26.9976 30.0566 26.8959 29.8958 26.828 29.7201C26.7696 29.5452 26.7385 29.3623 26.7359 29.1778C26.7295 28.9458 26.7809 28.7158 26.8855 28.5087C26.9769 28.3256 27.1064 28.1643 27.2653 28.0356C27.4043 27.927 27.5597 27.8414 27.7257 27.7818C27.8969 27.7259 28.0751 27.6948 28.2551 27.6895H28.7155H31.2935V28.1856H28.7155C28.4971 28.1684 28.2778 28.1684 28.0594 28.1856C27.946 28.2109 27.8387 28.2587 27.7438 28.326C27.649 28.3934 27.5685 28.479 27.507 28.5779C27.4484 28.6701 27.4056 28.7715 27.3804 28.8779C27.3691 28.9814 27.3691 29.0858 27.3804 29.1894C27.3773 29.4165 27.4548 29.6373 27.5991 29.8124C27.7699 30.0073 27.994 30.1476 28.2436 30.2162C28.6216 30.3338 29.0058 30.4301 29.3945 30.5046C29.8514 30.601 30.3013 30.7282 30.7411 30.8853C31.0259 30.9869 31.2879 31.1437 31.5122 31.3468C31.6499 31.4925 31.7557 31.6654 31.823 31.8545C31.8927 32.0427 31.9278 32.2421 31.9265 32.4429C31.9259 32.5909 31.9065 32.7382 31.869 32.8813C31.8329 33.0225 31.7704 33.1556 31.6848 33.2736C31.5657 33.4663 31.3993 33.6251 31.2015 33.7351C31.0167 33.8402 30.8195 33.9216 30.6145 33.9773C30.4263 34.026 30.2333 34.0531 30.039 34.0581H29.6247H26.7589V33.5851ZM20.6705 33.5851H23.8356C23.9905 33.5733 24.1444 33.5502 24.2959 33.5158C24.4433 33.4725 24.5859 33.4146 24.7218 33.3428C24.8589 33.2708 24.9741 33.1632 25.0555 33.0313C25.0998 32.9564 25.131 32.8744 25.1476 32.789C25.1587 32.697 25.1587 32.6041 25.1476 32.5121C25.1527 32.2421 25.0676 31.9782 24.9059 31.7622C24.7341 31.5849 24.526 31.4471 24.2959 31.3584C23.887 31.1912 23.4631 31.0637 23.0299 30.9776L22.466 30.8623L21.9135 30.7007C21.7467 30.6456 21.585 30.5761 21.4301 30.4931C21.2857 30.4129 21.1539 30.3118 21.0388 30.1931C20.9126 30.0561 20.8148 29.8953 20.7511 29.7201C20.6836 29.5472 20.6485 29.3634 20.6475 29.1778C20.6477 28.9587 20.6952 28.7421 20.7865 28.543C20.8779 28.3439 21.0111 28.1669 21.1769 28.0241C21.32 27.9152 21.4792 27.8296 21.6488 27.7703C21.8121 27.7126 21.9825 27.6776 22.1552 27.6664H22.6501H25.2627V28.1626H22.5811C22.3589 28.145 22.1357 28.145 21.9135 28.1626C21.6891 28.2176 21.495 28.3584 21.3726 28.5548C21.3058 28.6438 21.2588 28.7461 21.2345 28.8548C21.2232 28.9583 21.2232 29.0628 21.2345 29.1663C21.2356 29.3947 21.3171 29.6153 21.4647 29.7893C21.6311 29.9838 21.8514 30.1244 22.0977 30.1931C22.4754 30.3116 22.8597 30.4079 23.2486 30.4815C23.7055 30.5779 24.1554 30.7051 24.5952 30.8623C24.8778 30.9612 25.1365 31.1184 25.3548 31.3238C25.4925 31.4695 25.5983 31.6424 25.6655 31.8314C25.7352 32.0196 25.7703 32.219 25.7691 32.4198C25.7873 32.5654 25.7873 32.7126 25.7691 32.8582C25.7244 32.9962 25.6625 33.128 25.585 33.2505C25.4628 33.4407 25.2971 33.599 25.1016 33.712C24.9138 33.8192 24.7125 33.9007 24.5031 33.9543C24.3187 34.0022 24.1295 34.0293 23.9391 34.035H23.5133H20.659L20.6705 33.5851ZM18.783 34.0812V31.2199C18.7976 30.729 18.7195 30.2397 18.5528 29.7778C18.4124 29.4034 18.197 29.0618 17.9198 28.774C17.6721 28.5138 17.3693 28.3127 17.0336 28.1856C16.294 27.8937 15.4714 27.8937 14.7318 28.1856C14.3766 28.3395 14.0557 28.5631 13.788 28.8432C13.5349 29.1211 13.3323 29.4413 13.1895 29.7893C13.0403 30.1553 12.966 30.5477 12.9709 30.943C12.962 31.3399 13.0406 31.7338 13.2011 32.0968C13.3377 32.4304 13.546 32.7297 13.811 32.9736C14.082 33.2326 14.4033 33.4329 14.7548 33.562C15.1209 33.7081 15.5116 33.7825 15.9057 33.7812C16.3585 33.7772 16.804 33.6665 17.2063 33.4582C17.592 33.2837 17.946 33.0458 18.2536 32.7544V33.3428C17.9701 33.5939 17.6474 33.7965 17.2983 33.9427C16.8982 34.1123 16.4667 34.1949 16.0323 34.185C15.5895 34.1873 15.1495 34.1132 14.7318 33.9658C14.3134 33.8196 13.9238 33.6009 13.5809 33.3197C13.252 33.0325 12.9822 32.6837 12.7867 32.2929C12.5774 31.8664 12.4747 31.3952 12.4875 30.92C12.4907 30.4932 12.5727 30.0708 12.7292 29.6739C12.8828 29.2456 13.1216 28.8531 13.4312 28.5202C13.7567 28.1789 14.1484 27.908 14.5822 27.7241C15.0533 27.5522 15.5552 27.4815 16.0553 27.5165C16.4457 27.5132 16.8341 27.5716 17.2063 27.6895C17.5961 27.8302 17.9527 28.0502 18.2536 28.3356C18.5827 28.6619 18.8379 29.0554 19.0017 29.4893C19.2069 30.0023 19.3048 30.5521 19.2894 31.1046V34.0812H18.783ZM5.53592 34.0812V27.6895C5.51518 27.1329 5.61328 26.5783 5.82365 26.0628C5.98624 25.6774 6.23419 25.3341 6.54873 25.059C6.83155 24.8232 7.16106 24.6502 7.5155 24.5514C7.84979 24.4623 8.19394 24.4158 8.53982 24.4129C8.98517 24.4053 9.42749 24.4877 9.84036 24.6552C10.1938 24.8062 10.5115 25.0303 10.7726 25.3128C11.022 25.5804 11.2174 25.8938 11.3481 26.2358C11.4733 26.5875 11.5356 26.9585 11.5322 27.3319C11.5402 27.7235 11.4818 28.1136 11.3596 28.4856C11.2378 28.8293 11.0457 29.1436 10.7956 29.4086C10.5302 29.6883 10.203 29.9016 9.84036 30.0316C9.39643 30.2029 8.92329 30.2852 8.44775 30.2739H6.62929V29.7547H8.44775H9.0117C9.30139 29.716 9.58194 29.6261 9.84036 29.4893C10.1456 29.3234 10.4062 29.0859 10.6 28.7971C10.8385 28.3976 10.9508 27.935 10.9222 27.4703C10.934 27.1065 10.8673 26.7444 10.7266 26.4089C10.6118 26.1167 10.4351 25.8529 10.2087 25.6359C9.98155 25.4366 9.72029 25.2803 9.43754 25.1744C8.865 24.9899 8.24918 24.9899 7.67663 25.1744C7.38903 25.2583 7.12496 25.4084 6.90552 25.6128C6.65981 25.8501 6.46754 26.1372 6.34156 26.455C6.18036 26.8941 6.10609 27.3604 6.12289 27.828V34.1619L5.53592 34.0812Z" fill="white"/>
</g>
<defs>
<clipPath id="clip0">
<rect width="115" height="37" fill="white"/>
</clipPath>
</defs>
</svg>
