<svg width="40" height="40" viewBox="0 0 40 40" fill="none" xmlns="http://www.w3.org/2000/svg">
<g clip-path="url(#clip0)">
<path d="M20 0C9.15802 0 0 8.3136 0 18.8281C0 24.4629 2.71881 29.6161 7.10938 33.125V38.8281C7.10938 39.2364 7.32178 39.6152 7.67029 39.8282C8.01483 40.0384 8.44849 40.0592 8.81592 39.8709L14.6326 36.8896C16.3727 37.3465 18.176 37.5781 20 37.5781C31.0281 37.5781 40 29.1669 40 18.8281C40 8.30841 30.8362 0 20 0ZM20 35.2344C18.2364 35.2344 16.4957 34.9915 14.8267 34.5126C14.5404 34.4302 14.2337 34.4601 13.9691 34.5959L9.45312 36.9107V32.551C9.45312 32.1823 9.27979 31.8353 8.98529 31.6141C4.7644 28.4421 2.34375 23.7817 2.34375 18.8281C2.34375 9.73846 10.2643 2.34375 20 2.34375C29.7357 2.34375 37.6562 9.73846 37.6562 18.8281C37.6562 27.8744 29.7357 35.2344 20 35.2344Z" fill="white"/>
<path d="M31.1947 11.9208L22.575 16.2305L18.4848 12.1402C18.2492 11.9046 17.9245 11.7801 17.5915 11.7987C17.2586 11.8173 16.9494 11.9766 16.7413 12.2369L7.3663 23.9557C7.02237 24.3854 7.02389 24.9963 7.36996 25.4245C7.71603 25.8524 8.31326 25.9818 8.80551 25.7358L17.4249 21.4261L21.5152 25.5164C21.7508 25.752 22.0752 25.8762 22.4087 25.8575C22.7414 25.8392 23.0505 25.6799 23.2589 25.4196L32.6339 13.7009C32.9776 13.2712 32.976 12.6599 32.63 12.232C32.2842 11.8042 31.687 11.6745 31.1947 11.9208ZM22.2467 22.933L18.4848 19.1714C18.128 18.8147 17.5833 18.7262 17.1322 18.9517L8.80551 24.2651L17.7533 14.7232L21.5152 18.4848C21.8716 18.8416 22.4167 18.9301 22.8677 18.7045L31.5 13L22.2467 22.933Z" fill="white"/>
</g>
<defs>
<clipPath id="clip0">
<rect width="40" height="40" fill="white"/>
</clipPath>
</defs>
</svg>
