<svg width="40" height="40" viewBox="0 0 40 40" fill="none" xmlns="http://www.w3.org/2000/svg">
<g clip-path="url(#clip0)">
<path d="M33.4249 19.6243C32.7752 19.6243 32.2721 20.1251 32.2721 20.7779V36.5365H24.0972V30.1016C24.0972 29.498 23.5941 28.9703 22.986 28.9703H17.0751C16.425 28.9703 15.9013 29.4979 15.9013 30.1016V36.5365H7.747V21.3011C7.747 20.6929 7.24439 20.1877 6.59419 20.1877C5.98647 20.1877 5.4834 20.6929 5.4834 21.3011V37.6902C5.4834 38.2984 5.98647 38.8037 6.59419 38.8037H17.0751C17.6829 38.8037 18.1859 38.2984 18.1859 37.6902V31.2553H21.8331V37.6902C21.8331 38.2984 22.3362 38.8037 22.986 38.8037H33.4249C34.0327 38.8037 34.5357 38.2984 34.5357 37.6902V20.778C34.5357 20.1252 34.0327 19.6243 33.4249 19.6243Z" fill="white"/>
<path d="M39.6736 20.5231L30.5765 11.3873V5.15808C30.5765 4.50965 30.0524 4.00886 29.4027 4.00886C28.7945 4.00886 28.2915 4.50972 28.2915 5.15808V9.10221L20.7874 1.55382C20.5575 1.32127 20.2843 1.19604 20.012 1.19604C19.6976 1.19604 19.4249 1.32572 19.1945 1.55382L0.350386 20.3979C-0.101708 20.8495 -0.131643 21.574 0.350386 21.9898C0.769407 22.4728 1.49118 22.4415 1.94327 21.9898L20.012 3.96409L38.0387 22.1598C38.2265 22.3476 38.4997 22.4549 38.8561 22.4549C39.1705 22.4549 39.4428 22.3476 39.6736 22.1598C40.093 21.7394 40.1243 20.9792 39.6736 20.5231Z" fill="white"/>
</g>
<defs>
<clipPath id="clip0">
<rect width="40" height="40" fill="white" transform="matrix(-1 0 0 1 40 0)"/>
</clipPath>
</defs>
</svg>
