<svg width="69" height="100" viewBox="0 0 69 100" fill="none" xmlns="http://www.w3.org/2000/svg">
<path d="M61.9148 0H39.6561C36.0764 0 33.1642 2.91214 33.1642 6.49185C33.1642 10.0716 36.0764 12.9837 39.6561 12.9837H45.7756V40.7791C45.7756 41.5886 46.4317 42.244 47.2404 42.244C48.0499 42.244 48.7053 41.5886 48.7053 40.7791V12.9837H65.5022V16.6489H59.6466C58.8371 16.6489 58.1818 17.3042 58.1818 18.1137C58.1818 18.9232 58.8371 19.5786 59.6466 19.5786H65.5022V24.5262H61.8469C61.0374 24.5262 60.3821 25.1823 60.3821 25.9911C60.3821 26.8005 61.0374 27.4559 61.8469 27.4559H65.5022V32.4036H59.6466C58.8371 32.4036 58.1818 33.0597 58.1818 33.8684C58.1818 34.6779 58.8371 35.3333 59.6466 35.3333H65.5022V40.2809H61.8469C61.0374 40.2809 60.3821 40.937 60.3821 41.7458C60.3821 42.5552 61.0374 43.2106 61.8469 43.2106H65.5022V49.942C63.1813 47.1573 59.6886 45.3812 55.7884 45.3812H27.3094C12.2505 45.3812 0 57.6324 0 72.6906C0 77.9289 1.48773 83.0185 4.30145 87.4092C4.58145 87.8456 5.44052 88.4163 6.32553 87.8517C7.0076 87.4168 7.2052 86.5097 6.76804 85.8284C4.2572 81.9107 2.92969 77.3674 2.92969 72.6906C2.92969 59.2476 13.8664 48.3109 27.3094 48.3109H28.8254C19.9272 52.8175 13.813 62.0529 13.813 72.6906C13.813 83.3282 19.9272 92.5636 28.8254 97.0703H27.3094C21.0693 97.0703 15.1329 94.7151 10.5934 90.4381C10.0044 89.8834 9.07745 89.9109 8.5228 90.4991C7.96814 91.0881 7.99561 92.0151 8.58459 92.5705C13.6696 97.361 20.3194 100 27.3087 100H55.7884C62.7594 100 68.4311 94.3283 68.4311 87.3566V6.51703C68.4319 2.92358 65.5083 0 61.9148 0V0ZM65.5022 87.3566C65.5022 92.7132 61.1443 97.0703 55.7884 97.0703H41.1224C27.6794 97.0703 16.7427 86.1336 16.7427 72.6906C16.7427 59.2476 27.6794 48.3109 41.1224 48.3109H55.7884C61.1443 48.3109 65.5022 52.668 65.5022 58.0246V87.3566ZM36.0939 6.49185C36.0939 4.52728 37.6915 2.92969 39.6553 2.92969H46.8437C46.1693 3.95279 45.7748 5.17731 45.7748 6.49185C45.7748 7.80716 46.1693 9.03091 46.8437 10.054H39.6553C37.6915 10.054 36.0939 8.45642 36.0939 6.49185ZM48.7053 6.49185C48.7053 4.52805 50.3029 2.92969 52.2675 2.92969H61.9148C63.8931 2.92969 65.5022 4.53873 65.5022 6.51703V10.054H52.2675C50.3029 10.054 48.7053 8.45642 48.7053 6.49185Z" fill="#929495"/>
<path d="M41.0003 61C34.3831 61 29 66.3831 29 72.9997C29 79.6163 34.3831 85 41.0003 85C47.6169 85 53 79.6163 53 72.9997C53 66.3831 47.6169 61 41.0003 61ZM41.0003 82.5747C35.7208 82.5747 31.4253 78.2792 31.4253 72.9997C31.4253 67.7202 35.7208 63.4253 41.0003 63.4253C46.2792 63.4253 50.5747 67.7202 50.5747 72.9997C50.5747 78.2792 46.2798 82.5747 41.0003 82.5747Z" fill="#929495"/>
</svg>
