<svg width="104" height="100" viewBox="0 0 104 100" fill="none" xmlns="http://www.w3.org/2000/svg">
<path d="M96.7474 13.2902H70.8528V8.78842C70.8528 4.21823 67.1197 0.5 62.5313 0.5H41.4689C36.8805 0.5 33.1474 4.21823 33.1474 8.78842V13.2902H7.2528C3.25366 13.2902 0 16.531 0 20.514V71.276C0 75.2595 3.25366 78.5 7.2528 78.5H96.7472C100.747 78.5 104 75.2592 104 71.276V20.514C104 16.531 100.747 13.2902 96.7474 13.2902ZM37.291 8.78842C37.291 6.49371 38.6962 4 41 4H62.5313C64.835 4 67 6.49371 67 8.78842V13.2902H37L37.291 8.78842ZM100.5 71.5C100.5 73.2078 98.2146 75 96.5 75H7C5.28542 75 3 72.6099 3 70.902V31L36 46C36.6447 49.9161 39.8889 53 44 53H60C64.1111 53 66.8553 49.9161 67.5 46L87.5 36.5C88.5294 36.0027 88.9993 35.5254 88.5 34.5C88.0009 33.4744 86.5296 33.5023 85.5 34L67.5 43C66.2865 39.9393 63.3713 38 59.8726 38H44C40.5014 38 37.2133 39.9395 36 43L3 28V20.5C3 18.7924 5.28542 16.5 7 16.5H97.5C99.2144 16.5 100.5 18.7922 100.5 20.5V46V71.5ZM39 45.5C39 43.2243 40.7155 41 43 41H59.8726C62.1574 41 64.016 43.2088 64.016 45.4843C64.016 47.7598 62.1572 50 59.8726 50H44C41.7152 50 39 47.7755 39 45.5Z" fill="#929495"/>
</svg>
