<svg width="40" height="40" viewBox="0 0 40 40" fill="none" xmlns="http://www.w3.org/2000/svg">
<g clip-path="url(#clip0)">
<path d="M32.1484 39.9999C30.4841 39.9999 28.4741 39.5829 26.2636 38.7487C21.4175 36.9217 16.1449 33.3106 11.4171 28.5829C6.68807 23.8538 3.07702 18.5799 1.24863 13.7338C-0.41294 9.32758 -0.416976 5.71116 1.23921 4.05632C1.47734 3.81818 1.71951 3.56256 1.96976 3.29886C3.48064 1.70995 5.18795 -0.0780873 7.45091 0.00263646C9.01022 0.0672155 10.5211 1.0359 12.0683 2.96116C16.64 8.64681 14.5788 10.673 12.1934 13.022L11.7723 13.4391C11.3822 13.8293 10.6449 15.6361 17.5037 22.495C19.7425 24.7337 21.6516 26.3724 23.1772 27.364C24.1379 27.9882 25.8559 28.9327 26.5609 28.2277L26.9847 27.7999C29.3311 25.4199 31.3573 23.3655 37.0389 27.9331C38.9641 29.4803 39.9315 30.9898 39.9961 32.5518C40.0889 34.8134 38.2874 36.5248 36.6971 38.0343C36.4348 38.2846 36.1792 38.5267 35.941 38.7635C35.119 39.5869 33.8045 39.9999 32.1484 39.9999ZM7.28946 1.34534C5.68171 1.34534 4.23003 2.87371 2.94517 4.22584C2.68686 4.49761 2.43661 4.7613 2.1904 5.00751C0.956675 6.2399 1.0818 9.47827 2.50792 13.2602C4.27039 17.9314 7.77246 23.0358 12.3697 27.6331C16.9656 32.2276 22.0673 35.7296 26.7399 37.4908C30.5218 38.9196 33.7601 39.0407 34.9912 37.8096C35.2374 37.5634 35.5011 37.3132 35.7729 37.0562C37.1546 35.7431 38.722 34.2551 38.6534 32.6043C38.6063 31.4701 37.7802 30.2498 36.198 28.9784C31.4636 25.171 30.1397 26.515 27.944 28.7417L27.5135 29.1762C26.4641 30.227 24.7594 29.9942 22.4454 28.4901C20.8403 27.446 18.8572 25.7481 16.5539 23.4435C10.8615 17.7525 9.04116 14.2692 10.8225 12.4839L11.2517 12.0601C13.4837 9.8644 14.8304 8.53918 11.0216 3.80204C9.7475 2.2212 8.52857 1.39512 7.3944 1.34669C7.35942 1.34534 7.32444 1.34534 7.28946 1.34534Z" fill="white"/>
</g>
<defs>
<clipPath id="clip0">
<rect width="40" height="40" fill="white"/>
</clipPath>
</defs>
</svg>
